<?xml version="1.0" encoding="utf-8"?>
<!-- Generator: Adobe Illustrator 21.0.0, SVG Export Plug-In . SVG Version: 6.00 Build 0)  -->
<svg version="1.1" id="Calque_1" xmlns="http://www.w3.org/2000/svg" xmlns:xlink="http://www.w3.org/1999/xlink" x="0px" y="0px"
	 viewBox="0 0 48 48" style="enable-background:new 0 0 48 48;" xml:space="preserve">
<style type="text/css">
	.st0{fill:#FFFFFF;}
</style>
<path class="st0" d="M44.9,7.4l-3.4-4.1C40.8,2.5,39.8,2,38.7,2H9.3C8.2,2,7.2,2.5,6.5,3.3L3.1,7.4C2.4,8.3,2,9.4,2,10.6v30.6
	C2,43.8,4.2,46,6.9,46h34.2c2.7,0,4.9-2.2,4.9-4.9V10.6C46,9.4,45.6,8.3,44.9,7.4z M24,37.4L10.6,24h8.6v-4.9h9.8V24h8.6L24,37.4z
	 M7.2,6.9l2-2.4h29.3l2.3,2.4H7.2z"/>
</svg>
