<?xml version="1.0" encoding="utf-8"?>
<!-- Generator: Adobe Illustrator 21.0.0, SVG Export Plug-In . SVG Version: 6.00 Build 0)  -->
<svg version="1.1" id="Calque_1" xmlns="http://www.w3.org/2000/svg" xmlns:xlink="http://www.w3.org/1999/xlink" x="0px" y="0px"
	 viewBox="0 0 48 48" style="enable-background:new 0 0 48 48;" xml:space="preserve">
<style type="text/css">
	.st0{fill:#FFFFFF;}
</style>
<g>
	<g>
		<path class="st0" d="M5.4,24c0-11.1,8.3-20.2,19-21.6c-0.9-0.1-1.8-0.2-2.7-0.2C9.7,2.2,0,12,0,24s9.7,21.8,21.8,21.8
			c0.9,0,1.8-0.1,2.7-0.2C13.7,44.2,5.4,35.1,5.4,24z"/>
		<g>
			<path class="st0" d="M44.4,12.7c-3.6-5.1-9.5-8.5-16.2-8.5S15.6,7.6,12,12.7H44.4z"/>
			<path class="st0" d="M47.6,27.8c0.2-1.2,0.4-2.5,0.4-3.8c0-1.6-0.2-3.2-0.6-4.7H9.1c-0.4,1.5-0.6,3.1-0.6,4.7
				c0,1.3,0.1,2.5,0.4,3.8H47.6z"/>
			<path class="st0" d="M11.4,34.4c3.5,5.6,9.7,9.4,16.8,9.4S41.6,40,45,34.4H11.4z"/>
		</g>
	</g>
</g>
</svg>
