<?xml version="1.0" encoding="utf-8"?>
<!-- Generator: Adobe Illustrator 21.0.0, SVG Export Plug-In . SVG Version: 6.00 Build 0)  -->
<svg version="1.1" id="Calque_1" xmlns="http://www.w3.org/2000/svg" xmlns:xlink="http://www.w3.org/1999/xlink" x="0px" y="0px"
	 viewBox="0 0 48 48" style="enable-background:new 0 0 48 48;" xml:space="preserve">
<style type="text/css">
	.st0{fill:#FFFFFF;}
</style>
<g>
	<path class="st0" d="M6.2,24c0-10.6,8-19.4,18.2-20.7c-0.9-0.1-1.7-0.2-2.6-0.2C10.3,3.2,1,12.5,1,24s9.3,20.8,20.8,20.8
		c0.9,0,1.8-0.1,2.6-0.2C14.2,43.4,6.2,34.6,6.2,24z"/>
	<g>
		<path class="st0" d="M43.6,13.2c-3.4-4.9-9.1-8.1-15.5-8.1S16,8.3,12.5,13.2H43.6z"/>
		<path class="st0" d="M46.6,27.6c0.2-1.2,0.4-2.4,0.4-3.6c0-1.6-0.2-3.1-0.6-4.5H9.7c-0.4,1.4-0.6,3-0.6,4.5c0,1.2,0.1,2.4,0.4,3.6
			H46.6z"/>
		<path class="st0" d="M11.9,33.9c3.3,5.4,9.3,9,16.1,9s12.8-3.6,16.1-9H11.9z"/>
	</g>
</g>
</svg>
