<?xml version="1.0" encoding="utf-8"?>
<!-- Generator: Adobe Illustrator 21.0.0, SVG Export Plug-In . SVG Version: 6.00 Build 0)  -->
<svg version="1.1" id="Calque_1" xmlns="http://www.w3.org/2000/svg" xmlns:xlink="http://www.w3.org/1999/xlink" x="0px" y="0px"
	 viewBox="0 0 48 48" style="enable-background:new 0 0 48 48;" xml:space="preserve">
<style type="text/css">
	.st0{fill:#FFFFFF;}
</style>
<path class="st0" d="M24.3,1.4c-12.7,0-23,10.3-23,23c0,10.2,6.6,18.8,15.7,21.8c1.1,0.2,1.6-0.5,1.6-1.1c0-0.5,0-2.4,0-4.3
	c-6.4,1.4-7.7-2.7-7.7-2.7c-1-2.7-2.6-3.4-2.6-3.4c-2.1-1.4,0.2-1.4,0.2-1.4c2.3,0.2,3.5,2.4,3.5,2.4c2.1,3.5,5.4,2.5,6.7,1.9
	c0.2-1.5,0.8-2.5,1.5-3.1C15,33.9,9.6,32,9.6,23.2c0-2.5,0.9-4.6,2.4-6.2c-0.2-0.6-1-2.9,0.2-6.1c0,0,1.9-0.6,6.3,2.4
	c1.8-0.5,3.8-0.8,5.8-0.8c2,0,3.9,0.3,5.8,0.8c4.4-3,6.3-2.4,6.3-2.4c1.3,3.2,0.5,5.5,0.2,6.1c1.5,1.6,2.4,3.7,2.4,6.2
	c0,8.8-5.4,10.8-10.5,11.4c0.8,0.7,1.6,2.1,1.6,4.3c0,3.1,0,5.6,0,6.3c0,0.6,0.4,1.3,1.6,1.1c9.1-3,15.7-11.7,15.7-21.8
	C47.3,11.6,37,1.4,24.3,1.4z"/>
</svg>
