<?xml version="1.0" encoding="utf-8"?>
<!-- Generator: Adobe Illustrator 21.0.2, SVG Export Plug-In . SVG Version: 6.00 Build 0)  -->
<svg version="1.1" id="Calque_1" xmlns="http://www.w3.org/2000/svg"  x="0px" y="0px"
	 viewBox="0 0 1920 904.5" style="enable-background:new 0 0 1920 904.5;" xml:space="preserve">
<style type="text/css">
	.st0{fill:#40576E;}
	.st1{fill:#212E3A;}
</style>
<g>
	<path class="st0" d="M0.2,737.9c2.8,0.4,5.3-0.8,7.9-1.4c40.5-10.4,79-27.1,118.8-39.7c51.3-16.3,100.3-38.6,150.1-58.5
		c67-26.8,133.4-54.8,199.3-83.9c29.7-13.1,58.2-29,87.3-43.4c25.3-12.4,51.6-22.2,77.5-33.4c16.9-7.3,33.5-15.3,51.3-19.7
		c27.8-6.8,55.6-13.7,83.7-19.4c20-3.9,39.7-8.7,60.2-10c21-1.3,42.1-0.6,63.2-0.3c25,0.4,49.8,1.1,74.7,2.5
		c28.9,1.6,56.4,8.9,83.6,18.3c22.9,8,43.7,20,65,31.2c20.8,11,41.1,23,61.4,34.9c21.9,12.7,43,27.3,63.5,42.2
		c38.3,28,79.1,51.2,123.2,68.7c46.5,18.4,94.4,22.4,143.5,14.3c13.2-2.2,25.8-6.7,38-11.8c3.2-1.3,5.7-3.6,8-6.1
		c22.9-24,41.9-50.9,59.6-78.8c24.6-38.7,44.8-79.6,60-122.8c13.7-38.9,24.3-78.8,33.2-119.2c6-26.7,12.3-53.2,15.1-80.4
		c3.2-31.4,3.7-62.9,2.8-94.4c-0.6-20.4-1.5-40.7-2.3-61c-0.8-19.9-6.8-38.4-15.1-56.2c-1.5-3.2-3.1-6.4-4.6-9.5c1.3,0,2.7,0,4,0
		c3.5,6.5,7.2,12.9,10.7,19.5c1.2-6.8-1.2-13-0.6-19.5c2,0,4,0,6.1,0c-0.4,10.8-0.3,21.7,2,32.1c3.4,15.3,6.2,30.5,7.2,46.3
		c1.9,31.2,3.2,62.6,3.6,93.8c0.4,28.9,2.3,57.9,0.3,86.8c-0.2,3.6-0.5,7.3-0.8,11.5c0.7-0.8,1-1,1.1-1.2c0.3-1.5,0.5-2.9,0.7-4.4
		c4.4-33.5,5-67.1,4.3-100.8c-0.7-37.4-2.1-74.7-6.3-111.9c-2-17.6-5.5-34.9-9.1-52.2c2.7,0,5.4,0,8.1,0c1,5,2.4,9.8,3.1,14.8
		c3,25,3.8,50,4.8,75.1c0.9,23,1.3,46.1,1.7,69.1c0.9,44.3,0.5,88.5-6.9,132.4c-7.3,43.4-19,85.7-29.6,128.4c-0.4,1.8-1.4,3.6-0.5,7
		c1.6-4.1,2.8-7,3.8-9.9c14.1-42.8,25.9-86.1,35.5-130c6.4-29.1,12.5-58.2,14.5-88.1c2.6-41.7,1.5-83.5-0.3-125.1
		c-1.1-25.9-2.2-51.6-19-73.5c6.4,0,12.8,0,19.2,0c-0.5,13.9,0.4,27.6,8.2,39.9c6.5,10.3,9.3,21.9,10.9,33.8
		c2.1,15.4,2.7,30.8,3.2,46.3c0.1,1.7-0.3,3.5,1.3,6c0.2-2.2,0.4-3.5,0.4-4.9c0.1-29.9-0.9-59.8-2.5-89.7c-0.2-3.6-1.3-6.9-3.4-9.8
		c-5.1-7.1-10.1-14.3-15.1-21.4c1.3,0,2.7,0,4,0c2.3,7.8,8.3,13,12.7,19.4c0.4-0.2,0.8-0.3,1.2-0.5c-0.6-6.3-1.2-12.6-1.7-18.9
		c1.7,0,3.3,0,5.1,0c-2.9,19.5,3.3,36,16.9,50.1c-2.2-16.9-4.2-33.8-8.8-50.1c4.8,0,9.4,0,14.1,0c0.3,2.9,1.7,5.1,4.3,6.7
		c1.3-2.3,0.5-4.5,0.7-6.7c3,0,6.1,0,9.1,0c0.6,8.1,1,16.1,1.7,24.2c0.5,6,3.6,10.9,7.8,15.3c-0.9-13.4-3.1-26.5-6.5-39.4
		c3.3,0,6.8,0,10.1,0c8.1,96.6,11.9,193.4,9.7,291.3c0.6-1.2,0.9-1.6,1-2.1c5.5-25.2,11.3-50.3,13.6-76c3.7-41.6,3.4-83.4,1.6-125.1
		c-0.6-14.8-1.4-29.5-2.4-44.4c-1.1-14.6-3-29.1-4.2-43.7c5.1,0,10.1,0,15.2,0c1,11.5,2.2,23.1,2.8,34.7
		c3.5,57.7,4.6,115.4,3.8,173.2c-0.5,35.9-3.6,71.7-13.3,106.5c-12.1,43.5-22.5,87.4-36.2,130.4c-7.8,24.5-17.7,48-30.1,70.4
		c-7.8,13.5-14.7,27.8-22.1,41.8c-13.4,25.3-25.7,51.2-41.2,75.3c-14.9,23-31.4,45-47.8,67c-11,14.9-23.4,28.6-35.6,42.5
		c-10.1,11.6-22,20.7-33.8,30.3c-6.8,5.6-15,9.3-23,12.5c-30.2,12.1-61.8,19-94.4,20c-16.9,0.5-33.7,1.5-50.5,1.5
		c-29.3,0-56.7-8.4-83.3-20c-14.9-6.5-29.5-13.2-43.4-21.6c-13.7-8.3-29.3-12.7-44-18.9c-28-11.9-54-27.4-80.1-42.8
		c-30.3-17.7-56-42.1-86.5-59.4c-19.3-11.2-38.4-22.9-58-33.8c-10.6-5.9-22.4-8.2-34.2-10.6c-40.2-8.3-81.2-9.8-122.1-11
		c-65.6-2-129.3,8.7-191,30.3c-46.6,16.3-92.2,35.4-135.9,58.4c-53.9,28.3-110,51.9-166.1,75.3c-65.8,27.3-131.6,54.5-197.5,81.6
		c-9.5,3.9-19.3,7.2-29.1,10.1c-25.7,7.8-50.8,16.9-75.9,26.4C72,884.1,35.8,892.3,0.2,902.6c0-1,0-2,0-3c2.9-0.7,5.9-1.4,8.8-2.2
		c47-13.2,93.7-27.3,139.5-44.6c36.9-13.9,74.7-25.1,110.9-40.9c25.6-11.2,51.4-21.9,77.4-32.2c64.8-25.9,129.1-52.9,192.2-82.3
		c45.5-21.2,89.6-45.2,136.3-63.8c31.7-12.7,63.1-26.4,96.9-32.7c14.3-2.6,28.4-5.7,42.5-8.7c22-4.9,44.4-6.6,66.7-6.4
		c27.5,0.3,54.9,0.9,82.4,1.9c21.8,0.8,43.8,1.2,65.2,6.6c3.5,0.9,7.4,1.8,11.2,1.4c-0.2-1.4-1-1.7-1.7-2
		c-13.4-6.6-27-12.8-41.9-15.7c-35.7-6.9-71.8-9.5-107.9-10.9c-11.3-0.5-22.8-2-34.3-0.5c-31.2,4-62.4,9.4-92.4,19.2
		c-47.2,15.6-93.4,34-138.1,55.8c-37.2,18.2-74,37.3-112.2,53.5c-62.2,26.4-124.5,52.4-187.1,77.6c-38.1,15.4-75.3,33-114.5,45.4
		c-11.1,3.4-22.3,6.6-33.2,10.7c-38.7,15-77.8,28.3-118,38.7c-16.3,4.2-32.2,9.9-48.8,12.8c0-1,0-2,0-3c2.9,0.3,5.7-0.8,8.4-1.5
		c80.1-20.2,157.6-48.9,235.3-76.8c38.4-13.7,75.2-31.5,113.1-46.6c65.9-26.2,131.2-53.9,195.6-83.5c40.7-18.7,80-40.2,121.5-57.4
		c42.5-17.7,85-35.1,131-41.9c0.8-0.1,1.7-0.1,2.1-1.1c-1.5-0.8-2.9-0.3-4.4-0.1c-51.5,6.1-102,16.8-150.4,36
		c-33,13.1-66,26.4-97.9,42c-36,17.6-71.6,36.1-108.5,51.7c-63.4,27-127,53.4-190.8,79.3c-30.6,12.4-60.4,26.9-91.7,37.3
		c-40.1,13.3-79.8,27.9-119.8,41.7c-14.1,4.9-28.7,8.7-43.4,11.6c0-1,0-2,0-3c3.4,0.3,6.6-1.1,9.8-2c60-16.9,118.7-38.3,176.8-60.7
		c71.7-27.6,142.4-57.5,213.1-87.6c52-22.1,103.2-46.3,154.2-70.8c54.6-26.3,109.3-52.9,169.2-65.3c24.9-5.2,49.5-11.4,74.9-13.9
		c14-1.3,28.3-0.8,42.3-2.5c27-3.4,54.1-3.8,81.2-2.6c1.2,0.1,2.6,0.7,3.7-0.5c-1.4-1.3-3.2-1.1-4.8-1.3
		c-32.6-5.2-65.6-6.4-98.5-8.5c-28.4-1.8-55.8,1.7-82.7,10.1c-43.7,13.5-86.5,29.3-127.5,49.4c-70.5,34.5-141.7,67.4-214.3,97.5
		c-43.9,18.2-88.2,35.1-131.8,54.1c-32.1,13.9-64.4,27.6-98.1,37.4c-9.7,2.8-19.3,6.1-28.7,9.7c-34.7,13.2-69.5,25.5-105.5,34.6
		c-11.1,2.8-22,6.1-33.2,9.1c0-1,0-2,0-3c2.6-0.6,5.3-1,7.9-1.7c48.2-13.4,96-27.9,142.8-45.9c25.5-9.8,51.8-17,77.1-27.3
		c32.6-13.2,64.9-27.4,97.5-40.5c69.1-27.7,137.9-56.2,205.4-87.7c44.1-20.6,86.8-44,132.3-61.7c28.1-10.9,55.1-24.7,85.1-29.9
		c0.5-0.1,1.4-0.2,0.9-1.4c-2.9,0.4-6,0.8-8.9,1.1c-27.3,2.7-53.9,8.1-78.3,21.6c-5.8,3.1-11.8,5.7-17.8,8.6
		c-34.7,16.9-68.7,35-104.2,50.1c-63.7,27.2-127.4,54-191.7,79.8c-40.7,16.4-80.6,35.4-122.7,48.2c-13.2,4-26.3,8.4-39.2,13.2
		c-27.8,10.4-55.5,20.8-84.3,28.2c-20.9,5.4-41.3,12.1-61.6,19.9c-13.3,5.2-26.7,10.4-40.5,14.1c0-1,0-2,0-3
		c5.5-1,10.6-2.6,15.6-5.2c-5.4,0.4-10.2,2.9-15.6,3.1c0-1.3,0-2.7,0-4c3.2,0,6.3-1.1,9.4-1.8c31.3-7.5,61.3-19.1,91.6-30.1
		c32.1-11.6,65-21.2,96.3-35c1.7-0.8,3.4-1.5,5.3-2.3c-0.2-0.4-0.3-0.8-0.5-1.2c-7,2.2-14,4.2-21,6.6c-40.9,14-81,30.7-123.1,41
		c-19.4,4.8-38.4,11.5-58,15.8c0-1,0-2,0-3c2.7,0.3,5.4-0.7,7.9-1.3c59.2-15.9,117.7-34,175.1-55.8c18.4-7,37.4-12.5,55.8-19.5
		c44.9-17.1,88.4-37.4,133.1-54.8c34.4-13.3,68.6-27.1,101.4-44.3c37.3-19.6,76.1-35.9,114.6-52.9c46.5-20.5,93.1-40.9,140.2-60.1
		c2.8-1.2,5.8-2.2,9.5-3.7c-3.3-0.9-5.4,0.2-7.4,0.8c-48.7,15.1-96,33.6-142,55.5c-36.2,17.3-71.7,36.1-108.4,51.8
		C418,659.9,356.2,686,293.8,711c-35.2,14-69.3,30.9-105.2,42.9C125.8,774.8,64.4,799.5,0,815.5c0-1,0-2,0-3
		c2.1-0.5,4.2-0.9,6.4-1.5c46.1-12.8,91.5-27.7,136.4-44.4c35.4-13,71.5-24.3,106.1-39.3c28.4-12.3,57-24.3,85.8-35.8
		c62.3-24.9,124.1-50.7,184.8-79.3c42.8-20.1,84.2-43.3,128.6-60.1c21.8-8.3,42.7-19.5,65.3-25.7c18.7-5.1,37.5-9.8,56.6-13
		c1.9-0.3,3.9-0.2,6.6-2.4c-7.8,0.8-14.4,1.5-21,2.3c-27.9,3.4-55.9,6.8-81.5,19.8c-11.8,6.1-24.2,11.1-36.2,16.9
		c-37.8,18.1-74.9,37.7-113.5,54.2c-62.6,26.8-125.3,53-188.4,78.4c-39.6,16.1-78.4,34.3-119.4,46.9c-10.4,3.2-20.9,6.6-31.1,10.4
		c-33.2,12.2-66.3,24.7-100.7,33.5c-21.5,5.6-42.8,12.3-63.6,20.1c-6.9,2.6-13.7,5.5-21.1,6.8c0-2,0-4,0-6.1
		c25.1-6.1,49.5-14,74-22.3c45.8-15.5,91-32.5,135.4-51.5c58.7-25.1,118.3-47.8,176.8-73.6c1.9-0.8,4.1-1.2,5.4-3.4
		c-2.1,0.3-4.1,1-6.1,1.8c-11.7,4.8-23.3,9.6-35.2,14.1c-65.9,26-130.5,55.2-197.9,77.6C103.9,753,55.5,769.4,6.2,783
		c-1.9,0.5-3.9,0.6-6,0.9c0-0.7,0-1.3,0-2c1.5-0.4,2.9-0.7,4.4-1.1c51.7-14,102.8-29.9,152.9-49c24.3-9.2,49.4-16,73.4-25.8
		c28.2-11.6,56-24.1,84.4-35.2c81.4-32,162-65.7,240.5-104.2c45.7-22.4,92.1-43.2,139-62.8c16.4-6.9,32.8-13,50.2-16.6
		c12-2.4,23.8-6.2,36-8.2c0.6-0.1,1.7,0.1,1.6-1.5c-1.7,0-3.3,0-5.1,0c-28.2,0.2-55.7,5.9-82.7,13c-49.9,13.2-97.7,32.6-144.5,54.5
		c-35.9,16.7-70.8,35.5-107.1,51.1c-57.9,25.1-116.4,48.9-174.5,73.7c-80,34.2-161.6,63.8-243.8,92.1c-8.1,2.8-16.3,5.6-24.8,6.9
		c0-1,0-2,0-3c2.6,0.2,5-0.8,7.4-1.5c29-7.7,56.5-19.8,85-29.2c45.6-15.1,90.7-31.5,134.5-51c40.3-17.9,82.1-32.4,122.5-50.2
		c49.3-21.6,99.7-41.1,147.6-65.9c22.1-11.4,44.2-23.2,67.1-32.9c28.8-12.2,57.8-24.1,86.7-36.2c1.2-0.5,2.7-0.5,3.3-2.5
		c-3.2,0-6.1,1.1-8.8,2c-45,14.6-88.7,31.4-131.4,51.3c-36.8,17.2-72.7,36.2-109.8,52.6c-88.1,38.9-177.8,74.4-266.6,111.5
		c-43.4,18.1-88.8,30.5-132.6,47.5c-1.5,0.6-3.2,0.6-5,1c0-0.7,0-1.3,0-2c2.5-0.8,5.2-1.4,7.7-2.4c13.8-5.2,27.6-10.9,41.6-15.5
		c48.4-15.7,95.9-33.7,142.6-53.9c51.7-22.4,104.6-42,156.4-64.7c37.2-16.3,74.8-31.5,110.8-50.4c1.5-0.8,3.7-1.1,4.5-3.6
		c-3.3,0.2-5.7,1.7-8.1,2.7c-43.9,18.6-87.6,37.5-131.9,55c-41.2,16.3-81.5,34.7-122.8,50.5c-20.9,8.1-42.8,13.4-63.6,21.6
		c-44.8,17.6-90.8,31-137.1,43.5C0.2,741.2,0.2,739.6,0.2,737.9z M1667.1,605.8c0.3-0.3,0.7-0.7,1-1c2.8-3.1,5.7-6.2,8.4-9.4
		c21.6-26,39.6-54.4,56.6-83.4c5.4-9.1,11.1-18.2,13.9-28.5c7.8-27.8,16.4-55.5,22.4-83.8c2-9.2,5-18.2,5.6-27.7
		c0.1-0.3,0.1-0.5,0.2-0.8c0,0.3-0.1,0.5-0.1,0.8c-0.8,2-1.7,3.9-2.4,6.1c-6.7,20-14.7,39.4-24.6,58c-8.4,15.8-16.8,31.4-22.1,48.5
		c-2,6.4-4.6,12.6-7.2,18.9c-12.5,30.2-28.3,58.8-44.4,87.2c-2.5,4.3-4.8,8.9-7.1,13.3c-0.3,0.4-0.5,0.8-0.8,1.1
		C1666.7,605.4,1666.9,605.6,1667.1,605.8z M1627.4,597.4c0.4-0.3,0.8-0.5,1.2-0.8c9.8-7.3,19.4-14.8,25.5-25.5
		c10.6-19.1,19.2-39.2,27.9-59.3c0.6-1.4,1.8-2.8,1.1-4.6c-1.5,0.3-1.6,1.6-2.4,2.5c-10.8,12.7-17.6,28.2-25.9,42.5
		c-8.6,14.8-16.5,30.1-26.8,43.9C1627.8,596.5,1627.6,596.9,1627.4,597.4L1627.4,597.4z M1629.4,579.2c-0.3,0.3-0.7,0.7-1,1
		c-0.7,0.6-1.5,1.2-2.2,1.8c-0.3,0.3-0.7,0.6-1,1c-0.5,0.6-0.9,1.1-1.4,1.7c-8.3,7.6-14.7,17-24,23.6c-4.3,3.1-8.4,6.8-12.4,10.2
		c-0.9,0.7-2.5,1.2-1.8,3.5c5.8-2.8,12-4.6,16.6-9.5c8.1-8.6,15.6-17.6,22.4-27.2c0.4-0.6,0.8-1.2,1.2-1.8c0.3-0.4,0.5-0.7,0.8-1.1
		c0.6-0.8,1.1-1.5,1.7-2.3C1628.7,579.9,1629,579.5,1629.4,579.2L1629.4,579.2z M1120,502.4c0.6,0.4,1.2,0.9,1.8,1.3
		c11.1,7.3,23.2,12.9,34.5,20c25.3,15.9,50,32.3,74.4,49.5c29.9,21,61.7,38.5,95.2,52.9c1.1,0.5,2.2,1.6,3.6,0.5
		c-0.4-0.4-0.7-0.9-1.1-1.1c-18.3-9.9-34.1-23.4-51-35.4c-29-20.3-59.8-37.6-90.6-55.2c-20.9-11.9-41.8-23.9-64.7-31.9
		C1121.5,502.9,1120.7,502.6,1120,502.4l-0.3-0.2L1120,502.4z M1660.6,656.9c-0.5,0.5-1,1-1.4,1.5c-14.9,7.2-30.9,11.9-43.4,23.8
		c-4,3.9-8.4,7.8-13.7,10c-0.8,0.3-2,0.6-1.5,2.3c2,0.1,3.7-0.9,5.6-1.7c12.1-5,23.6-11.2,34.8-18.3c7-4.4,13.9-8.7,19-15.4
		c0.3-0.7,0.7-1.3,1-2v-0.3L1660.6,656.9z M1343.4,655L1343.4,655c0.7,0.3,1.4,0.6,2,1c0.6,0.4,1.3,0.7,1.9,1.1
		c13.1,8.8,27.3,15.9,41.2,23.3c9.9,5.4,20.4,4.8,31,4.3c0.6,0,1.3-0.2,1-1.4c-0.8-0.2-1.8-0.6-2.7-0.7
		c-22.7-4.1-43.4-14.3-64.3-23.4c-2-0.9-4-1.5-6.1-2.3c-0.7-0.3-1.4-0.6-2.1-0.9C1344.7,655.7,1344.1,655.4,1343.4,655z
		 M1164.5,632.8L1164.5,632.8c-0.5-0.5-1.1-0.9-1.7-1.3c-0.3-0.3-0.7-0.6-1-0.9c-0.6-0.4-1.1-0.9-1.7-1.3c-1-0.9-2-1.8-3-2.6
		c-18.8-13.2-38.6-25.1-58.6-36.3c-5.4-3-11.2-5.2-17.4-6.4c-0.8-0.2-1.6-0.4-2.3-0.6l-0.2-0.2l0.2,0.1c0.6,0.4,1.2,0.8,1.8,1.2
		c26.6,14.6,52.9,29.8,78.8,45.6c0.6,0.4,1.3,0.7,1.9,1.1c0.4,0.3,0.8,0.5,1.1,0.8C1163,632.2,1163.8,632.5,1164.5,632.8z
		 M1697,628.6c-0.5,0.6-0.9,1.1-1.4,1.7c-0.6,0.7-1.2,1.4-1.9,2.1c-0.4,0.6-0.8,1.2-1.2,1.7c-1,1.1-2.1,2.1-3.1,3.2
		c-8.5,9.2-16.5,19.2-25.8,27.5c-9.3,8.4-16.2,18.3-23.2,28.2l0.1,0.5h0.5c1.9-0.2,3.5-1.1,4.9-2.4c18-17,33.6-36,47.6-56.3
		c0.4-0.6,0.8-1.2,1.2-1.8c0.5-0.8,1.1-1.6,1.6-2.4c0.3-0.7,0.6-1.4,0.9-2c0.3-0.3,0.6-0.7,1-1c0.4-0.7,0.7-1.3,1.1-2l-0.1-0.1
		c-0.3,0.7-0.7,1.3-1,2C1697.7,628,1697.4,628.3,1697,628.6z M1687.1,626.8c0.5-0.5,1-1,1.4-1.5c10.7-9.3,20.1-19.8,28.4-31.3
		c21.1-29.3,37-61.3,50.6-94.6c11.4-27.8,19.2-56.8,27-85.7c12-44.9,22.8-90.1,28.4-136.3c0.6-5.2,0.9-10.3,1.4-15.5
		c-0.4,0-0.8-0.1-1.2-0.1c-2.7,16.5-9.1,32-12.4,48.4c-7.4,35.3-18.7,69.5-28.8,104.2c-3,10.5-7.2,20.6-11.4,30.7
		c-12.2,29-25.8,57.4-36.6,87.1c-6,16.3-13.7,31.7-21.8,47.1c-8.1,15.2-16.3,30.2-24.4,45.4c-0.3,0.7-0.6,1.4-0.9,2.1v0.3
		L1687.1,626.8z M1259.1,597.8c0.4,0.3,0.7,0.6,1.1,0.8c1,0.7,2,1.4,3,2.1c47.6,35.8,143.7,80.6,164.4,76.3
		c-1.3-1.6-3.2-1.9-4.9-2.6c-12.1-5-24.6-9.3-36.1-15.7c-14.1-7.9-28.9-14.4-44-20.2c-18.7-7.2-36.9-15.7-54.2-25.9
		c-8-4.6-16.4-8.6-24.6-12.9c-1-0.6-2-1.3-3-1.9c-0.4-0.3-0.7-0.6-1.1-0.8c-0.6-0.4-1.2-0.8-1.8-1.2c-1.2-1.3-2.3-2.6-4.5-2.5
		c0.6,2.2,2.4,2.5,3.7,3.4C1257.9,597.1,1258.5,597.5,1259.1,597.8z M602.6,547.9l-0.2,0.1C602.3,548,602.5,547.9,602.6,547.9
		l0.2-0.1L602.6,547.9z M1628.3,587.2c-4.8,6.2-9.5,12.2-14.3,18.4c0.4,0.3,0.8,0.6,1.2,0.9c6-5.3,9.7-12,13.4-19
		c0.2-0.3,0.9-0.5,0.2-1C1628.9,586.5,1628.5,587,1628.3,587.2z M1712.4,413.6c-5.9,15.4-9.1,31.5-13.9,47.2
		C1703.7,445.2,1709.2,429.6,1712.4,413.6c0-0.3,0.1-0.5,0.2-0.8C1712.5,413,1712.4,413.3,1712.4,413.6z M139.7,695.4
		c-22.3,6-43.5,15.5-65.1,23.2C96.8,712.5,118.2,704,139.7,695.4C139.6,695.4,139.6,695.4,139.7,695.4z M1625.9,652.4
		c-8.8,5.2-17.7,10.2-27.2,14.1c-2.6,1.1-3.8,3.6-5.3,6c-0.7,1.2-0.3,2.6,1.3,2.2c7.1-1.7,15-1.9,20.4-7.6c4.1-4.3,7.6-9.3,11.4-14
		c0-0.3,0-0.7,0-1C1626.4,652.3,1626.2,652.4,1625.9,652.4z M1637.1,688c-2.5,0.3-4.8,1.6-7,2.8c-7.4,4-14.9,7.7-23,10.1
		c-8.9,2.6-17.3,6.6-26.4,8.6c-0.7,0.1-1.7,0.2-1.4,1.7c13.6-1.1,26.6-5.4,39.7-8.5c8.4-2,14.6-6.7,18.7-14.1
		C1637.8,688.1,1637.6,687.9,1637.1,688z M1232.2,678.3L1232.2,678.3c1.5,1.8,3.6,3,5.7,4.2c26.6,16.3,54.1,30.6,82.8,42.7
		c1.8,0.8,3.7,1.9,6.9,1.2c-9.4-5.7-17.4-12-27.1-15.8c-17.8-6.7-35.1-14.7-51.4-24.3C1243.5,683.3,1238.4,679.8,1232.2,678.3z
		 M1277.9,654.7h-0.4v0.4c2.4,2.4,5.5,3.9,8.4,5.6c10.4,5.9,21.1,11.2,31.2,17.5c11.4,7.1,23.5,11.1,37,11c2.7,0,5.5,0,8.4,0
		c-0.7-1.9-1.7-2.2-2.6-2.5c-2.6-1.1-5.3-2.5-8-3.1c-19.8-3.9-37.7-13.1-56.2-20.7C1289.7,660.4,1284.4,656.5,1277.9,654.7z
		 M1760.9,530.8c1-1.3,2.1-2.6,2.9-4c20.3-34.1,38.9-68.9,45.4-108.8c0.3-1.6,0.7-3.2,1.1-5c1.3-6.1,2.6-12,4-18.1
		c-4.6,9.6-7.9,19.6-10.6,29.8c-8.2,31.4-19.9,61.4-35.9,89.8c-2.8,5.2-5.9,10.2-7.3,16.1v0.2H1760.9z M1624.6,665.3
		c3.2-0.8,5.9-2.6,8.2-4.9c9.9-9.6,19.5-19.4,28.4-30.1c18.9-22.8,35.1-47.7,50.4-73c0.8-1.3,2.2-2.5,1.3-4.9
		c-4.1,3.8-6.7,8.4-9.5,12.6c-15.6,23.6-33.5,45.6-53.3,65.8c-10.1,10.3-18.1,22-26.2,33.8C1624.2,664.9,1624.4,665.1,1624.6,665.3z
		 M682.5,552.1c6.8-0.5,13.3-2.3,19.7-4.1c13.5-3.9,27.9-4.6,40.9-10.6c16.1-7.4,32.7-13.3,50.1-16.9c12.4-2.5,24.7-6.4,37.2-8.8
		c-5.2-1.5-10.1-0.8-15.3,0c-38.3,6-75.2,17-111.1,31.3c-7.4,2.9-15,5.1-21.9,8.9c-0.1,0.1-0.2,0.2-0.3,0.2c0.1,0.1,0.1,0.2,0.2,0.2
		C682.3,552.2,682.4,552.1,682.5,552.1z M1721.2,548.7c-1,1.4-2.1,2.6-2.9,4.1c-13.1,26-31.5,48.5-47.8,72.4
		c-7.4,10.7-17,19.5-25.1,29.7v0.4h0.4c8.2-3,15.1-8.1,22.3-12.6c3.9-2.5,6.9-5.8,9.4-9.7c14.4-22,26.6-45.3,37.8-69
		c2.3-4.9,4.9-9.6,6.3-14.9C1721.8,548.5,1721.9,548.2,1721.2,548.7z M1641.2,593.1c-4.4,3.6-8.7,7.5-13.2,10.8
		c-9.7,7-17.4,15.7-24.2,25.5c-6.2,9.1-13.2,17.4-21,25.2c-3.7,3.7-7,7.9-10.4,11.8c0.3,0.4,0.6,0.7,0.9,1.1
		c9.4-2.8,18.7-6.1,27.2-11.2c0.8-0.5,1.5-1.4,2-2.2c14.1-19.4,27.3-39.6,39.2-60.5C1641.6,593.4,1641.4,593.3,1641.2,593.1z
		 M1127.5,603.1c-0.7-0.2-0.8,0.2-0.7,0.7c24,16,48,31.7,71.8,47.9c18.3,12.4,37.7,22.8,57.2,33.2c6.4,3.3,12.8,6.7,19.8,8.8
		c0.2,0,0.4-0.1,0.6-0.1c-0.1-0.1-0.2-0.2-0.3-0.3c-7.9-7.6-16.8-13.9-26-19.9c-36-23.6-73.8-44.5-111.4-65.4
		C1135.1,605.8,1131.5,603.9,1127.5,603.1z M1755.8,466.1c2.4-3.5,3.6-7.6,5.2-11.5c14.5-39.8,25.1-80.7,34.5-121.9
		c6.7-29,13.3-58.1,16.3-87.8c0.2-1.9,0.7-3.8-0.1-6.6c-0.6,1.5-1,2.2-1.2,3c-8.7,33.3-18.3,66.2-24.1,100.1
		c-5.3,30.9-15.4,60.6-22.3,91.2c-2.5,11.1-5.7,22.1-8.5,33.3C1755.2,466.5,1755.2,466.7,1755.8,466.1z M1580.5,739.5
		c-1.5,0.3-3,0.5-4.4,0.9c-22.1,7.7-45,11.1-68.2,12.6c-12.5,0.8-25.3,0.6-37.6,3.8c-12.5,3.3-25.4,5.2-38.3,6.1
		c-0.9,0.1-2.1-0.2-2.5,1.3c0.4,0.4,0.9,1,1.4,1.1c8.4,1.9,16.7,4.2,25.1,5.5c19,2.7,37.8,2,56.5-2.6c24.4-6.1,47.6-14.5,68.7-28.2
		C1581.2,739.7,1581.1,739.4,1580.5,739.5z M1322.9,667.6c0.2,0,0.5,0,0.7,0.1c-0.1-0.2-0.2-0.4-0.3-0.6
		c-23.2-15.2-46.5-30.2-68.7-47c-23.4-17.6-49.4-31.3-74.8-46.1c-30.9-18-62.2-35.2-96-46.9c-2-0.7-4-2-7.3-1.5
		c1.3,0.9,1.7,1.3,2.3,1.6c19.6,10.1,38.5,21.3,57.4,32.7c19.9,12,39.2,25,58.3,38.1c33.9,23.4,68.6,45.1,106.7,61.1
		C1308.4,662.2,1315.3,665.8,1322.9,667.6z M731.1,511.7c9.2-1,18.4-2.2,27.6-3c21.2-2,42.7-1,63.9-4c14.5-2,29.1-3.3,43.8-4
		c30.4-1.4,60.8,0,91.4,0.5c2.5,0,5.2,0.7,7.9-0.3c-0.6-0.6-0.8-1-1.1-1.1c-1.4-0.5-2.8-0.9-4.3-1.4c-31.7-10.5-64.6-14.8-97.7-17.2
		c-7.6-0.5-15.1-1.9-22.6-0.4c-14,2.8-28.1,5.3-42,8.5c-23,5.3-45.3,12.9-67,22c-0.3,0.2-0.5,0.3-0.8,0.5
		C730.3,512.4,730.7,511.9,731.1,511.7z M145,786.7c4.3-0.6,8.4-2.3,12.5-3.8c13.1-4.9,26.1-10.1,39.3-14.6
		c42.4-14.5,84.9-28.6,125.9-46.8c26.4-11.6,53.2-22.1,79.7-33.2c74.5-30.5,149.2-60.6,220.8-97.6c17.2-8.9,34.7-17.1,52-25.7
		c0.1-0.1,0.2-0.1,0.3-0.2c-0.1-0.1-0.1-0.2-0.2-0.2s-0.2,0.1-0.3,0.2c-1.8,0.3-3.7,0.4-5.5,0.8c-29.5,7.7-58.7,16.8-86,30.5
		c-46.1,23.1-93.3,43.7-140.4,64.5c-77.4,34.2-155.7,66.5-234.2,98.2c-21.7,8.8-43.2,18.1-64.7,27.2c-0.1,0.2-0.2,0.5-0.3,0.7
		C144.4,786.8,144.7,786.8,145,786.7z M1570.1,619.9c16.4-7.7,30.5-18.4,43.6-30.7c35.6-33.9,60.1-74.8,77.5-120.5
		c10.5-27.6,18.3-56,26.2-84.4c12.2-44.2,22.6-88.7,23.1-135c0.6-52.3-0.8-104.4-6-156.5c-0.2-2-0.6-4-0.9-6.2
		c-0.8,2.3-0.8,4.4-0.8,6.6c0.4,31.6,2.4,63.3,0.6,95c-1.4,26.1-2.6,52.2-8,77.8c-3.8,18.2-9.7,35.8-13.8,53.9
		c-4.6,20.5-10.6,40.7-16,61c-11.9,44.9-29,87.5-51.6,128.1c-9.8,17.6-19.2,35.5-31.2,51.9c-14.4,19.5-27.5,39.9-43.5,58.3
		C1569.3,619.9,1569.6,620,1570.1,619.9z M555.3,528c2-0.8,4.1-1.5,6.2-2.3c20.6-8.3,40.4-18.8,61.8-25.1
		c45.5-13.1,92-22.1,139.1-27.7c35.4-4.1,70.9-3.4,106.4-4.5c42.4-1.3,84.9,1.2,127.2,3c21,0.9,42.1,1.1,62.7,6.6
		c2.2,0.6,4.6,1.4,7.2,0.3c-0.8-1.6-2-1.8-3-2.3c-25.1-11.3-50.8-20.6-77.9-26c-30.8-6.1-62.1-8.3-93.3-10.1
		c-30.9-1.8-62-2.3-92.8,1.7c-26.7,3.5-53.6,6.6-79.3,15.1c-38,12.8-75.3,27.6-111.7,44.5c-17.9,8.3-35.7,16.8-53.1,26.1
		c-0.1,0.3-0.2,0.5-0.2,0.8C554.8,528,555,528,555.3,528z M1390.9,759.4c-12.1-5-22.8-12.5-35.5-15.8c-6.9-1.7-13.5-3.7-20.1-6.4
		c-52.2-20.6-100.2-48.5-144.5-82.8c-4.3-3.4-8.9-6.6-13.5-9.7c-34-22.5-69.8-42-105.2-62.2c-6.3-3.5-12.8-5.8-19.8-7.4
		c-24.1-5.4-48.4-8.4-73-10.2c-1.5-0.1-3.2-0.7-5,0.9c1.3,0.6,2.1,1.1,3,1.5c12.6,4.6,25.2,9.6,38,13.6c15.6,4.9,31,10.3,45.6,17.9
		c47.5,24.7,93.7,51.7,139.4,79.7c21.9,13.4,42.9,28.7,64.4,42.8c23.1,15.1,47.2,28.7,74.7,34.8c7.6,1.7,15.2,2.8,22.8,3.4
		C1371.6,760.5,1381.2,760.8,1390.9,759.4z M830.8,434.8c1.6,0.1,3.2,0.3,5,0.4c25.6,0.6,51.1,0.8,76.8,1.8
		c22.6,0.8,45.4,1.5,67.8,6.4c31.2,6.9,61.3,16.9,89.5,31.9c10.8,5.8,21.5,11.6,33.4,15.5c12.3,3.9,24.4,8.8,35.9,14.8
		c12.1,6.3,23.6,13.6,35.8,19.8c21.8,11,42.8,23.5,63.6,36.3c33.7,20.5,65.1,44.4,98.1,65.9c7.2,4.6,14.6,9.2,22.8,11.6
		c22.3,6.6,45.2,10.7,68.5,11.6c12.2,0.5,24.5-0.5,36.6-2c-3.6-0.3-7.4-0.2-11-0.3c-10.2-0.2-20.6,0.4-30.7-1.8
		c-19.4-4.2-38.5-9.4-56.9-17.3c-27.8-11.9-53.9-26.9-79.8-42.2c-20.8-12.3-39.5-27.4-59.3-41c-32.7-22.5-67.5-41.9-102.2-61.4
		c-46-25.9-94.8-43.3-147.8-48.3c-32.5-3.1-65.2-4.9-97.8-5.2C863,430.9,846.8,431.3,830.8,434.8z M682.5,526.7
		c-0.5-0.2-0.8-0.5-1-0.4c-3.4,0.8-6.9,1.5-10.3,2.5c-51.2,15-100.6,34.7-148.7,57.6c-36,17.2-71.6,35.5-108.1,51.3
		c-91.5,39.7-184,76.7-276.1,115c-1.4,0.6-3.2,0.7-4,2.7c3,0.2,5.3-1,7.6-1.8c26.5-9.6,52.7-19.9,79.4-28.3
		c15.3-4.8,30.3-10.1,45.2-16.1c38.8-15.4,76.9-32.6,115.7-48c62.4-24.7,124-50.9,185-78.9c38.4-17.6,74.8-39.4,114.3-54.8
		C681.8,527.5,682.1,527,682.5,526.7z M1799.6,509.5c0.5,0.1,1.1,0.2,1.6,0.3c71.2-157.9,94.8-322.3,66.2-493.8
		c0.1,8.2,0.9,16.4,1,24.6c0.8,53.5,3.8,107,0.8,160.6c-1.8,31.6-6.2,62.7-15.6,92.9c-3.1,10.1-5.5,20.5-6.9,31
		c-2.5,19.1-6.9,37.7-12,56.3c-9.6,35.1-17.3,70.6-28.7,105.2C1803.7,494,1801.8,501.8,1799.6,509.5z M1791.8,300.8
		c1.5-1.5,1.6-3.8,2.1-5.9c5.6-21.7,10.2-43.7,15.4-65.4c3.3-14.4,5.2-28.8,5.2-43.5c0.1-33.9-1.8-67.6-3.1-101.5
		c-0.6-17.5-7-32.3-16.1-46.6c-0.6-1-0.9-2.6-3.3-2.3C1794.6,124,1791.2,212.4,1791.8,300.8z M1310.5,679.4
		c-2.8-1.6-4.6-2.6-6.6-3.7c-6.5-3.6-13-7-19.3-10.9c-20-12.7-40.2-25.2-58.5-40.4c-2.5-2.1-5.6-3.7-8.4-5.6
		c-30.2-20.2-62-38.1-93.5-56.1c-29.4-16.8-60.1-30.3-92.7-39.6c-1.6-0.4-3.2-1.5-5.5-0.3c4.2,3.3,8.6,5.6,12.8,7.7
		c21.1,10.6,41.3,22.7,61.3,35c36.9,22.5,72.3,47.4,109.3,70c29.7,18.2,60.6,33.5,94.1,43.4C1305.4,679.4,1307.1,680.3,1310.5,679.4
		z M1380.6,682.5c0.1-0.5,0.3-1,0.4-1.4c-1.2-0.8-2.4-1.7-3.7-2.4c-26.5-14-51.8-30-76-47.7c-12.3-9.1-26.5-15.5-38.5-25.1
		c-8.9-7.1-18.2-13.2-28-18.9c-17.7-10.1-35.2-20.5-53-30.4c-38.2-21.3-78.4-37.2-121.8-44.4c-1.3-0.2-2.8-1.1-4.8,0.5
		c4,1.3,7.6,2.6,11.2,3.6c13.8,3.8,27.1,9.1,40.3,14.7c19.4,8.2,37.4,19.4,55.7,29.5c31.5,17.4,62.6,35.7,92.4,56.1
		c29.4,20.1,58.4,41,90.6,57C1356.5,679.2,1368.6,680.8,1380.6,682.5z M1649.2,740.4c-4.8,1.8-7.3,5.2-10.7,7
		c-28,15.3-58,24.4-89.6,27.6c-24.5,2.5-48.9,4.1-73.5,5.7c-36.1,2.2-72.3,6.6-107.7-5c-1.4-0.5-3.1-1.2-4.5,0.3
		c0.7,1.8,2.3,2.2,3.6,2.7c34.6,14.4,70.2,23.5,107.9,22.7c26.3-0.5,52.4-3.7,78-9.6c32.4-7.4,62.1-21,87.9-42.2
		C1643.7,747.3,1646.9,745,1649.2,740.4z M1542.6,768.2c29.1,0.6,85.8-21.1,112.7-42.7c26.3-21,73.6-80.9,74.8-94.8
		c-0.7,0.5-1.2,0.9-1.6,1.3c-7.6,9.9-16.5,18.7-25,27.7c-12.3,13.1-25.8,25-41.9,33.6c-6.3,3.3-13.2,5.4-18.9,9.5
		c-11.8,8.6-22.9,18.1-34.8,26.7c-13.7,10.1-26,22.4-41.9,29.5C1558.4,762.5,1550.3,764.7,1542.6,768.2z M1773.1,277.7
		c-0.5-0.1-0.9-0.2-1.4-0.3c-0.5,1.9-1,3.8-1.4,5.8c-7.5,34.1-18.1,67.3-28.3,100.6c-10,32.7-26.7,62.5-42.3,92.6
		c-1.9,3.7-4.2,7.2-5.6,11.3c-7.2,23.2-16.7,45.5-27.7,67.1c-0.5,0.9-1.5,1.9-0.3,3.1c2-0.4,2.8-2.3,3.9-3.6
		c20.7-25,37.8-52.5,54.4-80.1c2.9-5,5.1-10.2,6.8-15.8c15.2-50.5,28.1-101.6,37.8-153.4C1770.7,296,1771.8,286.8,1773.1,277.7z
		 M1662.7,682.6c0.9-0.1,1.5,0,1.9-0.1c1.4-0.6,2.7-1.3,4-2.1c20-11.5,36.4-27.3,51-44.7c10.8-12.8,22.6-25.3,30.2-40.3
		c16.4-32.8,30.2-66.7,39.2-102.3c0.3-1.3,1.4-2.7,0.4-3.8C1750.7,555.7,1710.8,621.6,1662.7,682.6z M996.9,539
		c-0.7-2.1-2.8-2-4.4-2.7c-37.5-14.5-76.7-20-116.5-22.8c-10.2-0.7-20.5-2.5-30.7-0.8c-26.5,4.3-52.6,10.3-77.7,19.5
		c-1.1,0.4-2.7,0.2-3,2.1c1.5,0.8,3,0.1,4.4-0.1c16.7-1.9,33.5-3.7,50.3-3.3c20.2,0.4,40.4,0.5,60.5,1.3c26.7,1,53.5,1.3,80,5.4
		c11.1,1.7,22.4,1.7,33.8,2.4C994.7,539.9,996,540.3,996.9,539z M1789.2,207.1c-0.3,0-0.6,0-0.9,0c-1,5.3-1.8,10.5-2.9,15.8
		c-4.1,18.9-9.1,37.6-9.3,57.2c-0.1,10.7-1.5,21.5-3.9,32c-9.9,43-20.2,85.9-32.9,128.2c-0.8,2.5-2.1,5.1-1.8,9.1
		c1.1-1.8,1.6-2.5,2-3.2c13.8-28.5,27.4-57.1,36.5-87.6c3.6-12.2,7.6-24.5,9.3-37.2c4.6-33.7,4.8-67.5,4.6-101.4
		C1789.8,215.7,1789.5,211.3,1789.2,207.1z M1707.8,451c0.3,0.2,0.6,0.4,0.9,0.6c0.8-1.4,1.7-2.7,2.4-4.1c6.9-15,14-29.8,20.4-45.1
		c15.6-37.3,25.1-76.4,35.2-115.3c3.3-12.8,7.6-25.7,8.3-39c2.7-48,0.6-95.9-2.6-143.8c-0.4-6-0.4-12-1.5-16.6
		c0,16.2-0.2,33.7,0,51.1c0.5,32.2-0.7,64.3-4.1,96.3c-2.6,24.1-9.9,47-15.7,70.4c-12,48.7-24.4,97.3-43.1,144
		C1707.8,450,1707.9,450.5,1707.8,451z M1831.2,303.9c18.4-47.4,18.3-221.8-0.8-252.9C1835.3,135.3,1828.6,219.5,1831.2,303.9z
		 M872.6,508.3c0.8,0.7,1,1,1.2,1c2.2,0.1,4.3,0.2,6.6,0.3c38.3,0.4,75.2,7.9,110.9,21.7c11.4,4.4,22.3,10.6,34.1,13.9
		c35.1,9.8,68.8,22.2,100.1,41.3c1.3,0.8,2.6,2.2,4.9,1.5c-0.9-1.7-2.5-2.3-3.8-3.2c-33.3-21.5-67.8-40.7-102.4-59.9
		c-7.2-4-14.6-7.6-22.9-9c-36.7-6.3-73.6-8.5-110.7-9.6C884.5,506.1,878.8,507.3,872.6,508.3z M1533.6,721.5
		c-55.3-3.2-110,6.2-165,6.4c1.9,1.4,3.9,2.3,6,3c15.8,5.8,31.6,11.7,48.4,13.8c13.3,1.7,26.8-0.2,40.1-2.4
		c17.1-2.8,34.2-5.6,50.9-10.3C1521.3,729.9,1527.7,726.4,1533.6,721.5z M1718.3,490.6c-4.4,8.6-9.1,15.5-14,22.2
		c-15.7,21.4-29.5,44.3-48.3,63.4c-0.8,0.8-1.4,1.9-1.9,2.9c-12.8,22.9-25.6,45.9-41.6,66.8c-1,1.4-2.5,2.7-2.2,5.3
		c3.7-0.9,6.7-3.1,9.7-5.1c11-6.9,22.4-13.2,30-24.3c27.1-39,48.8-81.1,67.1-124.8C1717.8,495.5,1719,494,1718.3,490.6z M804.9,545
		c2.2,2,3.6,1.6,5,1.6c18.8,0.5,37.7,0.7,56.5,1.5c21.6,0.9,43.5,1.2,64.7,6.5c17.7,4.3,35.5,7.1,53.9,7c12.5,0,25.3,0.9,37.7,2.7
		c3.2,0.5,6.4,1,9.6,1.5c0-0.5,0.1-1,0.1-1.4C959,533.3,882.9,534.3,804.9,545z M1535,644c-49.8,10.5-100,13.4-150.4,8.8
		c-0.1-0.1,0.1,0.3,0.3,0.4c21.8,9.8,43.9,19,67.1,24.7c4.2,1,8.2,1.2,12.4,0c14.5-4,28.5-9.1,41.8-16
		C1516.4,656.9,1526.3,651.7,1535,644z M1151,535.7c-33.3-21.2-69-36.8-106.8-47.9c-24.3-7.1-103-17.1-116-13.9
		c3.3,0.3,6.5,0.5,9.7,0.9c32.5,4.1,63.3,14.4,93.4,26.9c3.1,1.3,6.3,2.5,9.6,2.8c27.7,2.4,54.2,9.9,80.1,19.6
		C1130.9,527.8,1141,531.7,1151,535.7z M161.4,688.2c15.3-4.2,30.2-9.2,44.9-15c55.6-21.9,110.6-45.6,166-68.1
		c48-19.5,96-39.2,142.8-61.6c46.5-22.1,91.4-47.7,139.8-66c0.7-0.3,1.9-0.3,2-1.8c-1.5,0.5-2.8,0.9-4,1.3
		c-33.5,12.5-66.3,26.5-98.4,42.2c-34,16.7-67.8,33.7-102.7,48.7c-63.6,27.5-127.5,53.9-191.6,80C227.2,661.6,194.8,676,161.4,688.2
		z M1270.5,674.6c0.4,1.6,1.8,2.3,3,3.1c19.8,14.1,41.3,25.3,62.9,36.4c2.6,1.4,5.7,2.1,8.6,2.9c20.3,5.1,40.9,5.3,61.7,4.5
		c1.3,0,3.1,0.5,3.8-1.5c-1.9-1.7-4.3-1.7-6.6-2.3c-9.2-2.5-18.7-3.9-27.7-7.6c-14.8-6.1-29-13.6-44.6-17.5
		c-19.3-4.9-38.6-9.2-56.7-17.8C1273.7,674.3,1272.2,673.3,1270.5,674.6z M1270.6,733.6c0.2-0.4,0.5-0.9,0.7-1.3c-1.6-1-3.3-2-5-3.1
		c-14.7-10.2-30.9-18-44.9-29.1c-19.3-15.6-39.5-29.7-61.2-41.8c-25.7-14.4-50.7-30-78.4-40.5c-1.8-0.7-3.5-1.8-5.9-1.5
		c1,2.2,2.9,2.7,4.4,3.5c21.5,11.9,42.3,24.9,62.9,38.4c35.9,23.8,71.1,48.9,109.9,67.9C1259,728.8,1264.6,731.8,1270.6,733.6z
		 M1528.8,690.2c-2.3-1.6-4.3-1-6.4-0.9c-14.9,0.7-29.7,1.7-44.4-0.2c-18.7-2.4-36.9,0.8-55.3,2.8c-1.3,0.1-3.5-0.4-3.7,1.7
		c-0.2,1.6,1.8,1.7,2.9,2.2c11.4,4.9,23.2,8.8,35.3,12c10.3,2.7,20.6,4.3,31.2,0.3c10.8-4.1,21.8-8,32.2-13
		C1523.5,693.8,1526.4,692.8,1528.8,690.2z M1312.3,708c0.1-1.5-0.8-1.7-1.5-2.1c-22.8-13.9-46.2-27.1-66.9-44.3
		c-3.6-3-7.7-5.5-11.8-7.7c-26-13.9-50.4-30.3-75.2-46.3c-33.2-21.3-68.5-38.6-106.6-50c-1.3-0.4-2.6-1.5-4.4-0.3
		c0.8,0.6,1.4,1.2,2.1,1.5c19.9,9.4,38.3,21.5,58.6,30.3c38,16.5,73.4,38.3,109,59.4c27.3,16.1,53.3,34.2,79.3,52
		C1300.2,704.2,1305.8,707,1312.3,708z M609.9,545.1c0.8-0.3,1.5-0.5,2.2-0.8c19.1-8.7,38.9-15.1,59.4-19.3c21.6-4.3,43-9.8,63-19.6
		c12.8-6.3,26.4-11.1,40.4-14.1c15.5-3.4,30.7-8,46.4-10.4c1.1-0.2,2.4,0,3.3-1.7c-6.4-0.9-12.5-1.3-18.7-0.2
		c-12.4,2.2-24.9,4.4-37.2,7.1c-34.3,7.2-66.7,20.1-99.2,32.6C649.3,526.3,629.3,534.8,609.9,545.1z M1847.4,217.7
		c-0.2,0.6-0.4,1-0.4,1.5c-0.1,1.8-0.3,3.7-0.3,5.6c-0.5,29.7-4.5,59-12.3,87.7c-2,7.6-5.3,15-6,22.9c-2.2,27.3-7.8,53.9-15.9,80
		c-2.1,6.8-3.5,13.8-5.3,20.8c0.4,0.1,0.9,0.2,1.3,0.3C1836.6,366.4,1853.2,294.1,1847.4,217.7z M1779.4,477.8
		c3.6-3.9,5.5-8.8,7.4-13.5c14.7-35.7,23.5-73.1,33.6-110.1c2.2-8.1,4.4-16.3,5.3-24.7c2.3-24.4,2.9-48.7,2.9-73.2
		c0-0.8-0.2-1.6-0.3-2.5c-1.2,16.9-2.1,33.7-4.2,50.4c-4.1,32.2-15.3,62.8-22.1,94.4c-4,18.6-9.6,36.8-15.6,54.9
		C1783.5,461.6,1781.6,469.8,1779.4,477.8z M1774.8,63.2c2.9,54.8,3.3,109.8,4.8,164.6c4.4-21,9.4-41.9,8.3-63.7
		c-1.1-19.8-2.4-39.6-5-59.3C1781.1,90.8,1779,76.8,1774.8,63.2z M1779.2,411.5c1.2-3.4,2.2-6,3-8.7c12.5-41.2,23.4-82.9,32.9-125
		c7.8-34.4,12.6-68.8,10.1-104.1c-0.6-8.1-0.7-16.3-1.1-24.4c-1.4,7.2-1.9,14.4-2.1,21.5c-0.7,18.4-5.1,36.4-6,54.7
		c-1.1,22.5-2,45.2-7.5,67.1c-9.3,37.7-18.1,75.6-29.1,112.9C1779.1,407.3,1778,408.7,1779.2,411.5z M1506.9,746.1
		c2.3,1.6,4.3,0.7,6.3,0.4c13.8-1.9,27.6-4.1,41.1-7.6c20.6-5.3,40.2-13,58.6-23.9c1.2-0.7,3.3-1.5,2.9-3c-0.7-2.2-2.9-0.9-4.3-0.5
		c-13.2,3.1-26.7,5.4-40.2,6.6c-3.2,0.3-6.2,1.5-9,3.1c-8.4,4.8-17,8.7-26.2,11.6C1525.8,736,1517,741.9,1506.9,746.1z M1218,569.9
		c-0.2-2.1-1.9-2.7-3.2-3.7c-6.6-5-13.1-10-20-14.6c-30.6-20.3-62.7-38.3-94.5-56.5c-2.2-1.2-4.5-2.2-7-2.9
		c-14.1-4.5-28.5-8.3-43.2-10.4c-1.5-0.2-3.2-1.2-4.8,0c0.2,0.3,0.3,0.8,0.5,0.9c1.4,0.6,2.8,1.1,4.2,1.6
		c20.2,6.1,39.8,13.4,58.3,23.5c35.3,19.3,70.8,38.1,104.7,59.9C1214.5,568.7,1215.7,570.5,1218,569.9z M1828.6,388.3
		c-1.5,1.4-1.5,3.3-2,5.1c-3.2,11.8-6,23.9-10.8,35.2c-13.1,31-24.2,62.8-32.8,95.3c-3.4,12.7-7.9,25.1-13,37.1
		c-0.6,1.4-1.9,2.8-0.9,4.6C1783.9,550,1828.6,417,1828.6,388.3z M1019.6,502.6c-47.1-20.1-96.8-25.7-147.3-26.5
		c1.5,1,3.1,1.3,4.8,1.3c31.9,1.2,63,7.7,92.5,19.6C986.1,503.7,1002.9,501.1,1019.6,502.6z M1501,681.3c0.8,0,1.6,0.1,2.4,0
		c17.4-1.9,34.8-4.4,51.7-8.6c2.3-0.6,4.3-1.7,6.2-3.2c16.1-13.5,29.8-29.2,42.3-45.9c0.4-0.5,0.6-1.2-1.1-2.6
		c-15.2,12.4-28.4,27.7-45.5,38C1539.8,669.4,1520.1,674.6,1501,681.3z M716.3,552.1c7-0.6,13.7-2.6,20.8-3.3
		c26.4-2.7,53.2-2.2,79-9.7c3.5-1,7.4-0.9,11-1.4c14.7-1.7,29.3-2.5,44-2.4c-7.4-0.6-14.8-1.1-22.1-1.4c-31.9-1.2-63.6,2.2-95.1,7.1
		C740.8,543,728,545.7,716.3,552.1z M1497.4,713.5c1.9,1.2,3.6,0.6,5.3,0.4c16.8-1.9,33-5.8,49.4-9.7c9.8-2.3,15.7-9.2,22-15.9
		c0.6-0.6,1.3-1.3,0.8-2.2c-0.4-0.9-1.4-0.8-2.2-0.7c-11.4,2.1-24.3-1-33.6,9.2c-0.6,0.7-1.7,1-2.6,1.5c-11,6.2-22.5,11.3-34.7,14.8
		C1500.4,711.4,1498.6,711.6,1497.4,713.5z M1001.2,508.8c2,2.6,4.1,2.5,6.1,2.9c26.8,5.8,52.7,14.3,77.1,26.5
		c22.8,11.4,45.3,23.8,67.3,36.8c1.6,1,3.2,2.7,6.5,1.8c-2.3-1.5-3.7-2.5-5.4-3.5c-28.5-17.7-57.7-34-86.8-50.4
		c-5.4-3-10.9-5.1-17-6.4c-12-2.6-24.1-4.9-36.3-6.4C1009.2,509.8,1005.5,509.3,1001.2,508.8z M1511.1,669.2
		c25.8-7.6,49.3-19.3,70.1-36.6c-1.8-1.9-3.2-1-4.3-0.6c-8.1,2.7-16.2,5.7-24.6,7.6c-1.6,0.4-3.1,1.3-4.4,2.3
		C1535.7,651.1,1525.2,662.6,1511.1,669.2z M1444.1,776.7c-25.4-8.5-50.8-15.6-78.3-9.4C1391.4,775.3,1417.4,778.4,1444.1,776.7z
		 M1357.5,695.4c25.4,10.9,51.5,18.5,79.4,21c-0.6-1.5-1.6-1.6-2.3-1.7c-19.4-2.8-36.9-11.4-54.9-18.6
		C1372.5,693.1,1365.1,695,1357.5,695.4z M1824,28.9c-1.7,7,3.5,117.6,5.5,128.5C1829.9,113.6,1828.1,71.2,1824,28.9z M1070.5,575.4
		c-22.6-14.4-45-29.4-73.6-28.3C1022.6,553.7,1045.5,567.1,1070.5,575.4z M1815.7,91.9c1.1,29,0.4,58.1,2.1,87.2
		C1820.5,150,1824.7,120.8,1815.7,91.9z M870.6,563.4c30,1.7,60.1,2.1,90.3,3.9C931.1,559.2,900.8,562.3,870.6,563.4z M1385.1,742.3
		c-22-12-47.9-21.6-57.2-21.5C1345.6,732.2,1364.1,740.8,1385.1,742.3z M1389.5,750.4c9.5,8.9,36.7,11.5,46.9,5.1
		C1421.3,750,1405.6,750.9,1389.5,750.4z M1441,708.5c-11.6-4.8-23.1-9.7-34.9-14.4c-4.3-1.7-8.9-1-13.2,0.5
		C1408.4,701.3,1424.3,706.1,1441,708.5z M1077.7,611.6c-14.9-8.2-30.5-15-46.6-20.3C1044.7,602.1,1061.6,605.9,1077.7,611.6z
		 M1599.1,680.7c-9.1,1.4-17.2,3.4-22.3,11.1c-0.4,0.6-1,1.5-0.8,2.2c0.2,1,1.3,0.9,2,0.6c7.5-2.9,14.9-6.3,21.3-11.1
		c0.6-0.4,1.2-1.4,1.1-2C1600.4,680.5,1599.2,680.7,1599.1,680.7z M1588.6,670.6c-10.3,3.5-21.1,5.8-31,10.6
		C1568.1,678.2,1581.2,683,1588.6,670.6z M668.7,562.2c14.7-3.8,30.4-4.1,43.7-12.8C697.3,552.1,682.8,556.7,668.7,562.2z
		 M1818.8,30.5c1.9-10.2-1.3-18.6-8.6-25.5C1810.7,14.4,1817.8,21.3,1818.8,30.5z M850.3,474.2c-6.1-0.8-12-0.1-18,1.2
		C838.4,476.1,844.4,476.3,850.3,474.2z M1474,747c-5.4,0.5-10.6,0.9-16,1.4C1463.5,750.3,1468.8,750.3,1474,747z M1815.8,66.7
		c0.5-0.1,1-0.3,1.5-0.4c-0.9-5.7-1.9-11.2-2.8-16.9C1813.8,55.4,1813.3,61.2,1815.8,66.7z"/>
	<path class="st1" d="M0.2,880.4c16.6-3,32.5-8.6,48.8-12.8c40.1-10.4,79.3-23.8,118-38.7c10.8-4.1,22-7.3,33.2-10.7
		c39.3-12.3,76.5-30,114.5-45.4c62.7-25.3,124.9-51.3,187.1-77.6C540,679,576.7,659.8,614,641.7c44.8-21.8,90.9-40.2,138.1-55.8
		c30-9.9,61.1-15.2,92.4-19.2c11.4-1.5,22.8,0,34.4,0.4c36.2,1.4,72.3,4,107.9,10.9c15,2.8,28.5,9.2,41.9,15.7
		c0.7,0.3,1.5,0.7,1.7,2c-3.8,0.5-7.7-0.5-11.2-1.4c-21.4-5.4-43.4-5.8-65.2-6.6c-27.4-1-54.9-1.6-82.4-1.9
		c-22.4-0.2-44.8,1.5-66.7,6.4c-14.1,3.1-28.3,6.1-42.5,8.7c-33.9,6.4-65.2,20-96.9,32.7c-46.7,18.7-90.9,42.5-136.3,63.8
		c-63.2,29.5-127.5,56.4-192.2,82.3c-26,10.4-51.7,21.1-77.4,32.2c-36.2,15.8-74.1,27-110.9,40.9c-45.8,17.3-92.5,31.3-139.5,44.6
		c-2.9,0.8-5.9,1.5-8.8,2.2C0.2,893.2,0.2,886.8,0.2,880.4z"/>
	<path class="st1" d="M0.2,769.2c8.5-1.3,16.7-4,24.8-6.9c82.2-28.4,163.7-58,243.8-92.1c58.1-24.8,116.5-48.6,174.5-73.7
		c36.3-15.7,71.3-34.5,107.1-51.1c46.8-21.7,94.5-41.2,144.5-54.5c27-7.2,54.5-12.7,82.7-13c1.6,0,3.3,0,5.1,0
		c0.1,1.5-0.9,1.4-1.6,1.5c-12.1,1.9-24,5.7-36,8.2c-17.4,3.5-34,9.8-50.2,16.6c-47,19.6-93.3,40.3-139.1,62.8
		c-78.4,38.5-159.2,72.2-240.4,104.2c-28.4,11.2-56.2,23.6-84.4,35.2c-24,9.9-49.1,16.6-73.4,25.8c-50.1,19.1-101.2,35-152.9,49
		c-1.4,0.4-2.9,0.7-4.4,1.1C0.2,778,0.2,773.6,0.2,769.2z"/>
	<path class="st1" d="M0.2,868.3c14.7-2.9,29.2-6.7,43.4-11.6c39.9-13.8,79.6-28.4,119.8-41.7c31.3-10.4,61.1-24.9,91.7-37.3
		c63.8-26,127.4-52.4,190.8-79.3c36.9-15.7,72.5-34.2,108.5-51.7c31.9-15.6,64.9-28.9,97.9-42c48.5-19.2,98.8-30,150.4-36
		c1.4-0.2,2.9-0.7,4.4,0.1c-0.4,1-1.3,1-2.1,1.1c-46,6.8-88.4,24.3-131,41.9c-41.4,17.2-80.9,38.6-121.5,57.4
		c-64.5,29.6-129.7,57.4-195.6,83.5c-37.9,15.1-74.7,32.7-113.1,46.6C166.3,827,88.7,855.7,8.6,876c-2.7,0.7-5.5,1.8-8.4,1.5
		C0.2,874.3,0.2,871.3,0.2,868.3z"/>
	<path class="st1" d="M0.2,851.1c11-3,22-6.3,33.2-9.1c36-9.2,70.9-21.3,105.5-34.6c9.4-3.6,19-6.9,28.7-9.7
		c33.8-9.8,66-23.4,98.1-37.4c43.6-18.9,87.9-35.8,131.8-54.1c72.5-30.1,143.7-63,214.3-97.5c41-20.1,83.9-35.9,127.5-49.4
		c27-8.4,54.4-11.8,82.7-10c32.9,2.1,65.9,3.3,98.5,8.5c1.6,0.2,3.3,0,4.8,1.3c-1.1,1.2-2.5,0.6-3.7,0.5
		c-27.1-1.2-54.2-0.8-81.2,2.6c-14,1.8-28.2,1.2-42.3,2.5c-25.4,2.4-50,8.7-74.9,13.9c-59.9,12.4-114.7,39-169.2,65.3
		c-51,24.6-102.1,48.7-154.2,70.8c-70.6,30.1-141.4,60-213.1,87.6C128.6,824.8,70,846.3,9.9,863.2c-3.2,0.9-6.4,2.3-9.8,2
		C0.2,860.5,0.2,855.8,0.2,851.1z"/>
	<path class="st1" d="M0.2,836.9c13.8-3.8,27.2-9,40.5-14.1c20.1-7.8,40.6-14.6,61.6-19.9c28.8-7.4,56.5-17.8,84.3-28.2
		c12.9-4.9,26-9.2,39.2-13.2c42.1-12.8,81.9-31.8,122.7-48.2c64.3-25.8,128.1-52.7,191.7-79.8c35.5-15.2,69.5-33.3,104.2-50.1
		c5.9-2.8,12-5.4,17.8-8.6c24.4-13.5,50.9-18.9,78.3-21.6c3-0.3,6-0.7,8.9-1.1c0.4,1.3-0.5,1.3-0.9,1.4c-30,5.3-57,19.1-85.1,29.9
		c-45.5,17.6-88.2,41-132.3,61.7c-67.5,31.5-136.2,60-205.4,87.7c-32.6,13-64.9,27.2-97.5,40.5c-25.3,10.3-51.6,17.5-77.1,27.3
		c-46.8,18-94.6,32.4-142.8,45.9c-2.6,0.7-5.3,1.1-7.9,1.7C0.2,844.3,0.2,840.7,0.2,836.9z"/>
	<path class="st1" d="M0.2,800.6c7.4-1.3,14.3-4.1,21.1-6.8c20.8-7.8,42-14.7,63.6-20.1c34.4-8.8,67.4-21.2,100.7-33.5
		c10.3-3.7,20.7-7.2,31.1-10.4c41-12.6,79.7-30.9,119.4-46.9c63.1-25.6,125.8-51.7,188.4-78.4c38.6-16.5,75.7-36.1,113.5-54.2
		c12-5.8,24.4-10.8,36.2-16.9c25.7-13.1,53.6-16.5,81.5-19.8c6.7-0.8,13.2-1.5,21-2.3c-2.6,2.2-4.8,2.1-6.6,2.4
		c-19.1,3.3-37.9,8-56.6,13c-22.6,6.2-43.5,17.4-65.3,25.7c-44.3,16.9-85.7,39.9-128.5,60c-60.6,28.6-122.5,54.5-184.8,79.3
		c-28.8,11.5-57.4,23.3-85.8,35.8c-34.7,15.1-70.7,26.3-106.1,39.3c-44.9,16.6-90.4,31.4-136.4,44.4c-2.1,0.6-4.2,1-6.4,1.5
		C0.2,808.6,0.2,804.6,0.2,800.6z"/>
	<path class="st1" d="M1747.7,0.1c16.8,21.8,17.9,47.7,19,73.5c1.8,41.7,2.9,83.5,0.3,125.1c-1.9,29.9-8.1,59-14.5,88.1
		c-9.6,44-21.3,87.3-35.5,130c-1,2.9-2.2,5.9-3.8,9.9c-0.9-3.3,0.1-5.2,0.5-7c10.6-42.7,22.3-85,29.6-128.4
		c7.4-43.9,7.8-88.1,6.9-132.4c-0.5-23-0.9-46.1-1.7-69.1c-0.9-25.1-1.7-50.1-4.8-75.1c-0.6-5-2-9.8-3.1-14.8
		C1742.9,0.1,1745.3,0.1,1747.7,0.1z"/>
	<path class="st1" d="M0.2,762.1c1.6-0.3,3.3-0.4,5-1c43.8-17,89.2-29.4,132.6-47.5c88.8-37.1,178.4-72.6,266.6-111.5
		c37.1-16.4,73.1-35.4,109.8-52.6c42.7-19.9,86.4-36.8,131.3-50.9c2.8-0.9,5.6-2,8.8-2c-0.6,2-2.2,2-3.3,2.5
		c-28.9,12-57.9,24-86.7,36.2c-22.9,9.7-45,21.5-67.1,32.9c-47.9,24.8-98.2,44.3-147.6,65.9c-40.4,17.8-82.2,32.3-122.5,50.2
		c-43.9,19.5-88.9,36-134.5,51c-28.4,9.4-56,21.5-85,29.2c-2.4,0.6-4.8,1.7-7.4,1.5C0.2,764.9,0.2,763.5,0.2,762.1z"/>
	<path class="st1" d="M1859.8,0.1c1.2,14.6,3.1,29.1,4.2,43.7c1.1,14.8,1.8,29.5,2.4,44.4c1.8,41.7,2.2,83.5-1.6,125.1
		c-2.3,25.8-8.3,50.8-13.6,76c-0.1,0.5-0.4,0.9-1,2.1c2.2-97.8-1.6-194.7-9.7-291.3C1847,0.1,1853.5,0.1,1859.8,0.1z"/>
	<path class="st1" d="M0.2,815.7c64.4-16,125.8-40.7,188.6-61.7c35.9-12,70-28.8,105.2-42.9c62.4-25,124.2-51.1,186-77.6
		c36.9-15.8,72.3-34.6,108.4-51.8c46-21.9,93.3-40.4,142-55.5c2-0.6,4-1.7,7.4-0.8c-3.7,1.4-6.7,2.5-9.5,3.7
		c-47.1,19.1-93.7,39.6-140.2,60.1c-38.5,17-77.3,33.3-114.6,52.9c-32.6,17.2-67,30.8-101.4,44.3c-44.8,17.4-88.2,37.7-133.1,54.8
		c-18.4,7-37.4,12.5-55.8,19.5c-57.3,21.8-115.9,39.9-175.1,55.8c-2.6,0.7-5.2,1.7-7.9,1.3C0.2,817,0.2,816.4,0.2,815.7z"/>
	<path class="st1" d="M0.2,742.9c46.4-12.4,92.4-25.9,137.1-43.5c20.8-8.2,42.7-13.5,63.6-21.6c41.3-15.9,81.7-34.3,122.8-50.5
		c44.4-17.5,88-36.4,131.9-55c2.4-1,4.8-2.5,8.1-2.7c-0.8,2.5-2.9,2.8-4.5,3.6c-36,18.9-73.6,34.2-110.8,50.4
		C296.7,646.3,243.8,666,192,688.4c-46.7,20.2-94.2,38.2-142.6,53.9c-14,4.5-27.8,10.3-41.6,15.5c-2.5,0.9-5.2,1.6-7.7,2.4
		C0.2,754.4,0.2,748.7,0.2,742.9z"/>
	<path class="st1" d="M0.2,784.4c2-0.3,4-0.4,6-0.9c49.3-13.5,97.7-30.1,146.3-46.2c67.4-22.3,132-51.6,197.9-77.6
		c11.7-4.6,23.4-9.5,35.2-14.1c1.9-0.8,3.9-1.5,6.1-1.8c-1.2,2.2-3.4,2.6-5.4,3.4c-58.4,25.8-118,48.5-176.8,73.6
		c-44.5,19-89.6,36-135.4,51.5c-24.4,8.2-48.8,16.2-73.9,22.2C0.2,791.2,0.2,787.7,0.2,784.4z"/>
	<path class="st1" d="M1732.5,0.1c3.6,17.3,7.2,34.6,9.1,52.2c4.1,37.2,5.6,74.5,6.3,111.9c0.6,33.7,0.1,67.3-4.3,100.8
		c-0.2,1.5-0.4,3-0.7,4.4c-0.1,0.3-0.4,0.5-1.1,1.2c0.3-4.2,0.5-7.9,0.8-11.5c2-28.9,0-57.9-0.3-86.8c-0.4-31.3-1.7-62.6-3.6-93.8
		c-1-15.7-3.7-30.9-7.2-46.3c-2.3-10.4-2.4-21.3-2-32.1C1730.5,0.1,1731.5,0.1,1732.5,0.1z"/>
	<path class="st1" d="M0.2,820.8c19.6-4.2,38.5-11,58-15.8c42.1-10.4,82.2-27.1,123.1-41c7-2.3,13.9-4.3,21-6.6
		c0.2,0.4,0.3,0.8,0.5,1.2c-1.7,0.8-3.4,1.6-5.3,2.3c-31.3,13.7-64.2,23.3-96.3,35C71.1,806.8,41,818.5,9.7,826
		c-3.1,0.7-6.2,1.8-9.4,1.8C0.2,825.5,0.2,823.1,0.2,820.8z"/>
	<path class="st1" d="M1769.9,0.1c5.1,7.2,10,14.4,15.1,21.4c2.1,2.9,3.3,6.1,3.4,9.8c1.5,29.9,2.5,59.8,2.5,89.7
		c0,1.3-0.2,2.6-0.4,4.9c-1.6-2.3-1.2-4.2-1.3-6c-0.5-15.5-1.2-30.9-3.2-46.3c-1.6-11.8-4.4-23.4-10.9-33.8
		c-7.7-12.2-8.7-26-8.2-39.9C1767.9,0.1,1768.9,0.1,1769.9,0.1z"/>
	<path class="st1" d="M1799.2,0.1c4.5,16.4,6.6,33.3,8.8,50.1c-13.5-14.3-19.7-30.7-16.9-50.1C1793.8,0.1,1796.5,0.1,1799.2,0.1z"/>
	<path class="st1" d="M1830.5,0.1c3.3,12.9,5.6,26.1,6.5,39.4c-4.1-4.4-7.3-9.3-7.8-15.3c-0.7-8-1.2-16.1-1.7-24.2
		C1828.5,0.1,1829.5,0.1,1830.5,0.1z"/>
	<path class="st1" d="M1786.1,0.1c0.6,6.3,1.2,12.6,1.7,18.9c-0.4,0.2-0.8,0.3-1.2,0.5c-4.4-6.4-10.3-11.6-12.7-19.4
		C1778,0.1,1782,0.1,1786.1,0.1z"/>
	<path class="st1" d="M1723.4,0.1c-0.6,6.5,1.8,12.7,0.6,19.5c-3.5-6.5-7.2-12.9-10.7-19.5C1716.6,0.1,1720.1,0.1,1723.4,0.1z"/>
	<path class="st1" d="M0.2,831.9c5.4-0.2,10.2-2.7,15.6-3.1c-5,2.5-10.1,4.1-15.6,5.2C0.2,833.2,0.2,832.6,0.2,831.9z"/>
	<path class="st1" d="M1818.4,0.1c-0.2,2.1,0.6,4.2-0.7,6.7c-2.5-1.6-4-3.7-4.3-6.7C1815.1,0.1,1816.7,0.1,1818.4,0.1z"/>
	<path class="st1" d="M554.7,527.3c17.4-9.3,35.2-17.8,53.1-26.1c36.4-16.9,73.7-31.6,111.7-44.4c25.7-8.6,52.6-11.5,79.3-15.1
		c30.9-4.1,61.9-3.5,92.8-1.7c31.2,1.8,62.5,3.9,93.3,10.1c27.1,5.4,52.9,14.7,77.9,26c1,0.5,2.3,0.7,3,2.3c-2.5,1-5.1,0.2-7.2-0.3
		c-20.5-5.5-41.6-5.7-62.7-6.6c-42.4-1.8-84.9-4.3-127.2-3c-35.5,1-71.1,0.3-106.4,4.5c-47.1,5.6-93.5,14.6-139.1,27.7
		c-21.3,6.2-41.1,16.8-61.8,25.1c-2,0.8-4,1.5-6.2,2.3C555.1,527.7,554.9,527.5,554.7,527.3z"/>
	<path class="st1" d="M1569.4,619.2c16-18.3,29.1-38.7,43.5-58.3c12-16.4,21.3-34.3,31.2-51.9c22.6-40.4,39.7-83.2,51.6-128.1
		c5.4-20.3,11.3-40.5,16-61c4-18.1,10-35.7,13.8-53.9c5.5-25.7,6.6-51.7,8-77.8c1.8-31.6-0.2-63.3-0.6-95c0-2.1,0-4.3,0.8-6.6
		c0.3,2,0.7,4,0.9,6.2c5.2,52,6.6,104.2,6,156.5c-0.5,46.3-10.8,90.9-23.1,135c-7.9,28.4-15.6,56.8-26.2,84.4
		c-17.5,45.7-41.9,86.6-77.5,120.5c-13,12.3-27.2,23.1-43.6,30.7C1569.9,619.7,1569.6,619.5,1569.4,619.2z"/>
	<path class="st1" d="M1390.9,759.4c-9.7,1.5-19.3,1.1-28.7,0.3c-7.6-0.6-15.2-1.8-22.8-3.4c-27.5-6.2-51.5-19.7-74.7-34.8
		c-21.6-14-42.4-29.2-64.4-42.8c-45.7-28-91.9-55.1-139.4-79.7c-14.6-7.6-29.9-13-45.6-17.9c-12.8-4-25.4-8.9-38-13.6
		c-0.9-0.3-1.8-0.8-3-1.5c1.7-1.6,3.4-1,5-0.9c24.6,1.8,48.9,4.9,73,10.2c7,1.5,13.5,3.8,19.8,7.4c35.5,20.1,71.3,39.6,105.2,62.2
		c4.6,3,9.2,6.3,13.5,9.7c44.3,34.4,92.4,62.2,144.5,82.8c6.6,2.6,13.3,4.6,20.1,6.4C1368,746.9,1378.8,754.5,1390.9,759.4z"/>
	<path class="st1" d="M830.8,434.8c16-3.5,32.2-3.8,48.3-3.7c32.6,0.3,65.3,2,97.8,5.2c53,5.1,101.8,22.4,147.8,48.3
		c34.7,19.5,69.4,38.8,102.2,61.4c19.8,13.6,38.6,28.8,59.3,41c26,15.4,52,30.3,79.8,42.2c18.4,7.9,37.5,13,56.9,17.3
		c10.1,2.2,20.4,1.6,30.7,1.8c3.6,0.1,7.4,0,11,0.3c-12.1,1.5-24.4,2.5-36.6,2c-23.3-0.9-46.1-5.2-68.5-11.6
		c-8.3-2.4-15.7-7-22.8-11.6c-33-21.4-64.5-45.4-98.1-65.9c-20.8-12.6-41.7-25.3-63.6-36.3c-12.1-6.2-23.8-13.4-35.8-19.8
		c-11.5-6.1-23.6-10.8-35.9-14.8c-11.8-3.8-22.5-9.7-33.4-15.5c-28.3-15.1-58.3-25.1-89.5-31.9c-22.4-5-45.1-5.6-67.8-6.4
		c-25.6-1-51.1-1.2-76.8-1.8C834.1,435.1,832.4,434.9,830.8,434.8z"/>
	<path class="st1" d="M682.5,526.7c-0.4,0.4-0.7,0.8-1.1,0.9c-39.5,15.4-75.9,37.1-114.3,54.8c-60.9,28-122.6,54.3-185,78.9
		c-38.8,15.4-76.9,32.6-115.7,48c-14.9,5.9-29.9,11.2-45.2,16.1c-26.9,8.5-53.1,18.8-79.4,28.3c-2.3,0.8-4.5,2.1-7.6,1.8
		c0.9-2,2.7-2.1,4-2.7c92.1-38.3,184.7-75.4,276.1-115c36.6-15.9,72.2-34.2,108.1-51.3c48.1-22.9,97.5-42.7,148.7-57.6
		c3.4-1,6.9-1.7,10.3-2.5C681.7,526.2,682.1,526.5,682.5,526.7z"/>
	<path class="st1" d="M675.4,565.2c-17.4,8.5-34.9,16.8-52,25.7c-71.8,36.9-146.3,67-220.8,97.5c-26.7,10.9-53.5,21.4-79.7,33.2
		c-41,18.2-83.5,32.3-125.9,46.8c-13.2,4.5-26.2,9.8-39.3,14.6c-4.1,1.5-8.2,3.2-12.5,3.8c-0.2-0.2-0.3-0.4-0.5-0.6
		c21.5-9.1,43.1-18.4,64.7-27.2c78.5-31.7,156.8-64.1,234.2-98.2c47.1-20.8,94.3-41.3,140.4-64.5c27.3-13.7,56.5-22.7,86-30.5
		c1.8-0.5,3.6-0.6,5.5-0.8C675.2,565,675.4,565.2,675.4,565.2z"/>
	<path class="st1" d="M1687.7,624.5c8.1-15.2,16.3-30.2,24.4-45.4c8.2-15.4,16-30.9,21.8-47.1c10.8-29.6,24.4-58,36.6-87.1
		c4.2-10.1,8.4-20.2,11.4-30.7c10-34.6,21.3-68.8,28.8-104.2c3.4-16.3,9.7-31.8,12.4-48.4c0.4,0,0.8,0.1,1.2,0.1
		c-0.4,5.2-0.8,10.4-1.4,15.5c-5.6,46.3-16.3,91.5-28.4,136.3c-7.8,28.9-15.6,57.9-27,85.7c-13.6,33.3-29.6,65.3-50.6,94.6
		c-8.3,11.5-17.7,22-28.4,31.3C1688.3,625,1688,624.7,1687.7,624.5z"/>
	<path class="st1" d="M1799.6,509.5c2.1-7.7,4-15.5,6.6-23c11.4-34.6,19.1-70.1,28.7-105.2c5.1-18.6,9.5-37.2,12-56.3
		c1.4-10.5,3.7-20.9,6.9-31c9.4-30.2,13.7-61.2,15.6-92.9c3.1-53.6,0.1-107-0.8-160.6c-0.1-8.2-0.8-16.4-1-24.6
		c28.6,171.5,5,335.9-66.2,493.8C1800.7,509.7,1800.2,509.6,1799.6,509.5z"/>
	<path class="st1" d="M1791.8,300.8c-0.6-88.4,2.7-176.8,0.1-265.2c2.4-0.3,2.7,1.3,3.3,2.3c9.1,14.3,15.4,29.1,16.1,46.6
		c1.3,33.9,3.1,67.6,3.1,101.5c0,14.8-1.8,29.1-5.2,43.5c-5.2,21.8-9.8,43.8-15.4,65.4C1793.4,296.9,1793.4,299.3,1791.8,300.8z"/>
	<path class="st1" d="M1310.5,679.4c-3.4,0.9-5.2,0-6.9-0.5c-33.5-9.9-64.4-25.2-94.1-43.4c-36.9-22.5-72.4-47.5-109.3-70
		c-20.1-12.3-40.2-24.5-61.3-35c-4.3-2.1-8.6-4.3-12.8-7.7c2.2-1.2,3.9-0.1,5.5,0.3c32.5,9.3,63.3,22.7,92.7,39.5
		c31.6,17.9,63.3,35.8,93.5,56c2.8,1.9,5.9,3.4,8.4,5.6c18.3,15.3,38.5,27.7,58.5,40.4c6.3,3.9,12.8,7.3,19.3,10.9
		C1305.8,676.7,1307.7,677.8,1310.5,679.4z"/>
	<path class="st1" d="M1380.6,682.5c-12-1.7-24.1-3.3-35.3-8.9c-32.1-15.9-61.1-36.8-90.6-57c-29.8-20.4-60.8-38.6-92.4-56.1
		c-18.4-10.1-36.3-21.3-55.7-29.5c-13.2-5.6-26.5-10.8-40.3-14.7c-3.6-1-7.3-2.3-11.2-3.6c1.9-1.6,3.4-0.7,4.8-0.5
		c43.4,7.2,83.6,23,121.8,44.4c17.8,9.9,35.3,20.3,53,30.4c9.8,5.7,19.2,11.8,28,18.9c12,9.6,26.2,16,38.5,25.1
		c24.2,17.8,49.5,33.7,76,47.7c1.3,0.7,2.5,1.6,3.7,2.4C1380.8,681.5,1380.7,682,1380.6,682.5z"/>
	<path class="st1" d="M1649.2,740.4c-2.3,4.4-5.5,6.9-8.5,9.4c-25.9,21.2-55.5,34.9-87.9,42.2c-25.7,5.9-51.7,9.1-78,9.6
		c-37.7,0.7-73.4-8.4-107.9-22.7c-1.3-0.6-2.9-0.9-3.6-2.7c1.4-1.5,3.1-0.8,4.5-0.3c35.5,11.5,71.7,7.1,107.7,5
		c24.6-1.5,49-3.1,73.5-5.7c31.6-3.3,61.6-12.4,89.6-27.6C1641.9,745.6,1644.5,742.2,1649.2,740.4z"/>
	<path class="st1" d="M1542.6,768.2c7.6-3.5,15.7-5.7,23.3-9.1c16-7.1,28.1-19.4,41.9-29.5c11.8-8.7,22.9-18.1,34.8-26.7
		c5.7-4.1,12.6-6.2,18.9-9.5c16.2-8.5,29.6-20.4,41.9-33.6c8.5-9,17.4-17.8,25-27.7c0.4-0.5,1-0.8,1.6-1.3
		c-1.2,13.9-48.5,73.8-74.8,94.8C1628.4,747.1,1571.7,768.7,1542.6,768.2z"/>
	<path class="st1" d="M1773.1,277.7c-1.3,9.1-2.4,18.3-4.1,27.3c-9.7,51.8-22.6,102.9-37.8,153.4c-1.6,5.5-3.7,10.8-6.8,15.8
		c-16.7,27.7-33.7,55.2-54.4,80.1c-1.1,1.3-1.9,3.2-3.9,3.6c-1.3-1.2-0.2-2.2,0.3-3.1c11.1-21.6,20.5-43.9,27.7-67.1
		c1.3-4,3.6-7.6,5.6-11.3c15.6-30.2,32.3-59.9,42.3-92.6c10.2-33.4,20.8-66.5,28.3-100.6c0.4-1.9,1-3.8,1.4-5.8
		C1772.2,277.5,1772.7,277.6,1773.1,277.7z"/>
	<path class="st1" d="M1662.7,682.6c48.1-61,88-126.9,126.9-193.3c1,1.1-0.1,2.5-0.4,3.8c-9,35.6-22.8,69.4-39.2,102.2
		c-7.6,15.2-19.4,27.5-30.2,40.3c-14.7,17.5-31,33.2-51,44.7c-1.3,0.7-2.6,1.4-4,2.1C1664.2,682.6,1663.6,682.5,1662.7,682.6z"/>
	<path class="st1" d="M730.7,511.3c21.7-9.1,44.1-16.8,67-22c13.9-3.2,28-5.8,42-8.5c7.6-1.5,15.1-0.2,22.6,0.4
		c33.2,2.4,66,6.7,97.7,17.1c1.4,0.5,2.9,0.9,4.3,1.4c0.3,0.1,0.5,0.4,1.1,1.1c-2.7,1-5.4,0.4-7.9,0.3c-30.4-0.4-60.9-1.8-91.4-0.5
		c-14.7,0.7-29.2,1.9-43.8,4c-21.2,3-42.7,2-63.9,4c-9.2,0.9-18.4,2-27.6,3C730.9,511.6,730.8,511.4,730.7,511.3z"/>
	<path class="st1" d="M996.9,539c-0.9,1.3-2.1,0.9-3.2,0.8c-11.2-0.7-22.6-0.7-33.8-2.4c-26.6-4-53.4-4.3-80-5.4
		c-20.2-0.8-40.4-0.8-60.5-1.3c-16.9-0.4-33.7,1.4-50.3,3.3c-1.4,0.2-2.9,0.8-4.4,0.1c0.2-1.8,1.9-1.7,3-2.1
		c25.3-9.2,51.3-15.2,77.7-19.5c10.2-1.7,20.5,0.1,30.7,0.8c39.7,2.8,79,8.4,116.5,22.8C994,537,996.1,537,996.9,539z"/>
	<path class="st1" d="M1322.9,667.6c-7.7-1.7-14.6-5.4-21.6-8.3c-38.1-16-72.9-37.7-106.7-61.1c-19.1-13.2-38.5-26.2-58.3-38.1
		c-18.9-11.4-37.8-22.6-57.4-32.8c-0.6-0.3-1-0.7-2.3-1.6c3.2-0.4,5.3,0.8,7.3,1.5c33.9,11.8,65.2,29,96,46.9
		c25.4,14.8,51.3,28.5,74.8,46.1c22.2,16.7,45.5,31.7,68.7,47C1323.2,667.1,1323.1,667.3,1322.9,667.6z"/>
	<path class="st1" d="M1774.9,372c-0.6,9.5-3.5,18.5-5.6,27.7c-6.1,28.3-14.7,56-22.4,83.8c-2.9,10.3-8.6,19.3-13.9,28.5
		c-17,29-35,57.5-56.6,83.4c-2.7,3.2-5.6,6.3-8.4,9.4c-0.2-0.2-0.5-0.5-0.7-0.7c2.3-4.4,4.6-9,7.1-13.3
		c16.1-28.4,31.8-56.9,44.3-87.2c2.5-6.3,5.2-12.4,7.2-18.9c5.3-17.2,13.7-32.7,22.1-48.5c9.9-18.6,17.9-38,24.6-58
		C1773.2,376.1,1774.1,374.1,1774.9,372L1774.9,372z"/>
	<path class="st1" d="M1789.2,207.1c0.2,4.2,0.6,8.6,0.6,12.8c0.1,33.9,0,67.7-4.6,101.4c-1.8,12.7-5.7,25-9.3,37.2
		c-9.1,30.4-22.6,59.1-36.5,87.6c-0.4,0.7-0.8,1.4-2,3.2c-0.3-4,1-6.6,1.8-9.1c12.7-42.2,23-85.1,32.9-128.2
		c2.4-10.5,3.8-21.3,3.9-32c0.2-19.6,5.2-38.3,9.3-57.2c1.1-5.3,2-10.5,2.9-15.8C1788.7,207.1,1788.9,207.1,1789.2,207.1z"/>
	<path class="st1" d="M1707.8,451c0.1-0.5,0.1-1,0.2-1.4c18.7-46.7,31-95.3,43.1-144c5.8-23.3,13-46.4,15.7-70.4
		c3.5-32,4.6-64.1,4.1-96.3c-0.3-17.5,0-35,0-51.1c1.1,4.4,1.1,10.5,1.5,16.6c3.2,47.9,5.3,95.8,2.6,143.8c-0.7,13.3-5,26.2-8.3,39
		c-10.2,38.9-19.6,78.1-35.2,115.3c-6.4,15.3-13.5,30.1-20.4,45.1c-0.7,1.4-1.6,2.8-2.4,4.1C1708.4,451.4,1708.1,451.2,1707.8,451z"
		/>
	<path class="st1" d="M1831.2,303.9c-2.5-84.5,4-168.7-0.8-252.9C1849.4,82.1,1849.6,256.5,1831.2,303.9z"/>
	<path class="st1" d="M872.6,508.3c6.2-1,11.9-2.1,17.8-1.9c37,1.1,74,3.3,110.6,9.6c8.4,1.4,15.7,5.1,22.9,9
		c34.6,19.2,69.1,38.4,102.4,59.9c1.3,0.9,2.9,1.5,3.8,3.2c-2.2,0.6-3.5-0.7-4.9-1.5c-31.1-19.1-65-31.5-100.1-41.3
		c-11.6-3.3-22.5-9.5-34-13.9c-35.7-13.8-72.6-21.3-110.9-21.7c-2.2,0-4.3-0.1-6.6-0.3C873.6,509.3,873.4,509,872.6,508.3z"/>
	<path class="st1" d="M1533.6,721.5c-6,4.9-12.4,8.4-19.7,10.5c-16.7,4.8-33.8,7.5-50.9,10.3c-13.3,2.1-26.8,4-40.1,2.4
		c-16.7-2.1-32.5-8.1-48.4-13.8c-2-0.7-3.9-1.6-6-3C1423.7,727.7,1478.3,718.3,1533.6,721.5z"/>
	<path class="st1" d="M1718.3,490.6c0.6,3.4-0.5,5.1-1.2,6.6c-18.3,43.8-40,85.7-67.1,124.8c-7.6,10.9-19.1,17.4-30,24.3
		c-3,1.9-6,4.1-9.7,5.1c-0.4-2.5,1.1-3.8,2.2-5.3c16-20.9,28.8-43.9,41.6-66.8c0.6-1,1.1-2.1,1.9-2.9c18.8-19.1,32.5-41.9,48.3-63.5
		C1709.3,506,1713.9,499.2,1718.3,490.6z"/>
	<path class="st1" d="M804.9,545c78-10.6,154.1-11.6,227.4,19.4c0,0.5-0.1,1-0.1,1.4c-3.2-0.5-6.4-1-9.6-1.5
		c-12.5-1.8-25.2-2.7-37.7-2.7c-18.4,0.1-36.3-2.5-53.9-7c-21.3-5.3-43.1-5.6-64.7-6.5c-18.8-0.8-37.7-1-56.5-1.5
		C808.4,546.6,807,547,804.9,545z"/>
	<path class="st1" d="M1535,644c-8.7,7.8-18.6,12.9-28.6,18.1c-13.3,6.9-27.4,11.9-41.8,16c-4.2,1.2-8.2,1-12.4,0
		c-23.3-5.8-45.3-15-67.1-24.7c-0.3-0.1-0.4-0.5-0.3-0.4C1435.1,657.4,1485.2,654.5,1535,644z"/>
	<path class="st1" d="M1151,535.7c-10-3.8-19.9-7.9-30-11.6c-26-9.7-52.5-17.2-80.1-19.6c-3.4-0.3-6.6-1.5-9.6-2.8
		c-30-12.6-60.8-22.8-93.4-26.9c-3.1-0.4-6.4-0.6-9.7-0.9c12.9-3.1,91.7,6.8,116,13.9C1081.9,498.9,1117.6,514.4,1151,535.7z"/>
	<path class="st1" d="M1122.4,503.1c22.8,8.1,43.8,19.9,64.7,31.9c30.7,17.6,61.6,34.9,90.6,55.2c17,11.8,32.7,25.5,51,35.4
		c0.4,0.2,0.7,0.7,1.1,1.1c-1.5,1.1-2.6-0.1-3.6-0.5c-33.6-14.5-65.3-31.9-95.2-52.9c-24.4-17.1-49.2-33.7-74.4-49.5
		c-11.2-7.1-23.3-12.6-34.5-20C1122,503.5,1122.2,503.3,1122.4,503.1z"/>
	<path class="st1" d="M161.4,688.2c33.4-12.1,65.9-26.6,98.7-40.1c64.1-26.3,128.1-52.6,191.6-80c34.8-15.1,68.7-32,102.7-48.7
		c32.1-15.8,65-29.6,98.4-42.2c1.2-0.5,2.5-0.8,4-1.3c-0.1,1.5-1.3,1.6-2,1.8c-48.4,18.2-93.3,43.8-139.8,66
		c-46.8,22.3-94.8,42-142.8,61.6c-55.4,22.4-110.4,46.2-166,68.1C191.6,679,176.6,684,161.4,688.2z"/>
	<path class="st1" d="M1581.2,740.2c-21.1,13.6-44.4,22.1-68.7,28.2c-18.8,4.6-37.6,5.4-56.5,2.6c-8.5-1.2-16.8-3.5-25.1-5.5
		c-0.5-0.1-1-0.8-1.4-1.1c0.4-1.6,1.6-1.3,2.5-1.3c12.9-0.9,25.8-2.8,38.3-6.1c12.3-3.2,25.1-3,37.6-3.8c23.2-1.5,46.2-5,68.2-12.6
		c1.4-0.5,2.9-0.6,4.4-0.9C1580.8,739.7,1581,739.9,1581.2,740.2z"/>
	<path class="st1" d="M1270.5,674.6c1.7-1.3,3.1-0.3,4.3,0.3c18.1,8.6,37.4,13,56.7,17.8c15.6,3.8,29.8,11.4,44.6,17.5
		c9,3.7,18.5,5.1,27.7,7.6c2.2,0.6,4.6,0.6,6.6,2.3c-0.7,2-2.5,1.4-3.8,1.5c-20.7,0.7-41.3,0.4-61.7-4.5c-2.9-0.7-6-1.5-8.6-2.9
		c-21.5-11.1-43.1-22.3-62.9-36.4C1272.3,676.8,1270.9,676.2,1270.5,674.6z"/>
	<path class="st1" d="M1270.6,733.6c-6.1-1.8-11.6-4.9-17.3-7.6c-38.9-19-74-44.1-109.9-67.9c-20.5-13.5-41.4-26.5-62.9-38.4
		c-1.5-0.8-3.5-1.3-4.4-3.5c2.3-0.3,4,0.8,5.9,1.5c27.7,10.5,52.8,26.2,78.4,40.5c21.6,12.1,41.8,26.3,61.2,41.8
		c13.9,11.2,30.2,18.9,44.9,29.1c1.6,1.1,3.3,2.1,5,3.1C1271.1,732.7,1270.8,733.2,1270.6,733.6z"/>
	<path class="st1" d="M1528.8,690.2c-2.3,2.7-5.3,3.6-8,5c-10.4,5.1-21.4,8.9-32.2,13c-10.5,4-20.9,2.4-31.2-0.3
		c-12-3.2-23.9-7.2-35.3-12c-1.2-0.5-3.1-0.6-2.9-2.2c0.2-2,2.3-1.5,3.7-1.7c18.4-2,36.6-5.4,55.3-2.8c14.8,1.9,29.6,0.9,44.4,0.2
		C1524.4,689.1,1526.5,688.6,1528.8,690.2z"/>
	<path class="st1" d="M1312.3,708c-6.5-1.1-12-3.7-17.4-7.4c-26.1-17.9-52.2-36-79.3-52c-35.7-21-70.9-43-109-59.4
		c-20.4-8.8-38.7-21-58.6-30.3c-0.7-0.3-1.3-0.9-2.1-1.5c1.8-1.2,3.1-0.1,4.4,0.3c38,11.4,73.5,28.7,106.6,50.1
		c24.8,16,49.2,32.3,75.2,46.3c4.1,2.2,8.3,4.6,11.8,7.7c20.7,17.2,44.1,30.3,66.9,44.3C1311.5,706.3,1312.4,706.6,1312.3,708z"/>
	<path class="st1" d="M609.9,545.1c19.4-10.2,39.3-18.8,59.6-26.6c32.5-12.4,65-25.5,99.2-32.6c12.3-2.6,24.8-4.9,37.2-7.1
		c6.2-1.1,12.3-0.7,18.7,0.2c-1,1.7-2.3,1.5-3.3,1.7c-15.7,2.5-30.9,7.1-46.4,10.5c-14,3.1-27.6,7.9-40.4,14.1
		c-20,9.8-41.3,15.3-63,19.6c-20.5,4.2-40.3,10.6-59.4,19.3C611.5,544.6,610.6,544.8,609.9,545.1z"/>
	<path class="st1" d="M1847.4,217.7c5.8,76.4-10.8,148.7-38.7,218.9c-0.4-0.1-0.9-0.2-1.3-0.3c1.7-7,3.1-13.9,5.3-20.8
		c8.1-26.2,13.5-52.8,15.9-80c0.6-8,3.8-15.3,6-22.9c7.8-28.7,11.7-58,12.3-87.7c0-1.8,0.2-3.7,0.3-5.6
		C1847,218.8,1847.2,218.3,1847.4,217.7z"/>
	<path class="st1" d="M1755.5,465.9c2.8-11.1,6-22,8.5-33.3c7-30.5,17-60.2,22.3-91.2c5.8-33.9,15.4-66.9,24.1-100.1
		c0.2-0.8,0.6-1.5,1.2-3c0.9,2.7,0.3,4.6,0.1,6.6c-2.9,29.7-9.6,58.8-16.3,87.8c-9.5,41.2-20.1,82.1-34.5,121.9
		c-1.4,3.9-2.6,8-5.2,11.5L1755.5,465.9z"/>
	<path class="st1" d="M1264,599.8c8.2,4.2,16.6,8.2,24.6,12.9c17.3,10.2,35.5,18.6,54.2,25.9c15.1,5.8,29.8,12.3,44,20.2
		c11.5,6.4,24,10.8,36.1,15.7c1.6,0.7,3.5,1,4.9,2.6c-20.7,4.1-116.8-40.5-164.4-76.3C1263.4,600.4,1263.7,600.1,1264,599.8z"/>
	<path class="st1" d="M1779.4,477.8c2.2-8.1,4.1-16.3,6.8-24.3c6-18.1,11.5-36.3,15.6-54.9c6.9-31.5,18.1-62.2,22.1-94.4
		c2.1-16.7,3.1-33.6,4.2-50.4c0.1,0.8,0.3,1.6,0.3,2.5c0,24.5-0.6,48.8-2.9,73.2c-0.8,8.4-3,16.6-5.3,24.7
		c-10,37.1-18.9,74.5-33.6,110.1C1784.9,469.2,1783,474,1779.4,477.8z"/>
	<path class="st1" d="M1275.6,693.6c-7-2.1-13.4-5.4-19.8-8.8c-19.5-10.3-38.9-20.6-57.2-33.2c-23.8-16.2-47.8-31.9-71.8-47.9
		c0.2-0.2,0.4-0.5,0.7-0.7c4,0.8,7.6,2.8,11.1,4.8c37.6,20.9,75.4,41.7,111.4,65.4c9.1,6,18.1,12.3,26,19.9
		C1275.8,693.3,1275.7,693.4,1275.6,693.6z"/>
	<path class="st1" d="M1774.8,63.2c4.1,13.6,6.3,27.6,8.1,41.6c2.5,19.7,3.8,39.5,5,59.3c1.2,21.7-3.7,42.7-8.3,63.7
		C1778.2,172.8,1777.8,117.9,1774.8,63.2z"/>
	<path class="st1" d="M1779.2,411.5c-1.2-2.8-0.1-4.3,0.4-5.9c11.1-37.3,19.8-75.2,29.1-112.9c5.5-22,6.4-44.6,7.5-67.1
		c0.9-18.4,5.3-36.3,6-54.7c0.3-7.2,0.7-14.4,2.1-21.5c0.4,8.1,0.5,16.3,1.1,24.4c2.4,35.3-2.4,69.7-10.1,104.1
		c-9.5,42-20.4,83.7-32.9,125C1781.4,405.6,1780.4,408.1,1779.2,411.5z"/>
	<path class="st1" d="M1506.9,746.1c10.1-4,18.9-10.1,29-13.2c9.2-2.9,17.9-6.9,26.2-11.6c2.8-1.6,5.8-2.8,9-3.1
		c13.5-1.2,27-3.3,40.2-6.6c1.4-0.3,3.6-1.7,4.3,0.5c0.5,1.5-1.6,2.3-2.9,3c-18.3,10.9-38,18.7-58.6,23.9
		c-13.5,3.4-27.3,5.6-41.1,7.6C1511.3,746.8,1509.3,747.6,1506.9,746.1z"/>
	<path class="st1" d="M1218,569.9c-2.2,0.6-3.4-1.1-4.9-2c-33.9-21.8-69.4-40.6-104.7-59.9c-18.5-10.1-38.1-17.6-58.3-23.5
		c-1.4-0.4-2.8-1-4.2-1.6c-0.2-0.1-0.3-0.5-0.5-0.9c1.6-1.2,3.2-0.3,4.8,0c14.8,2.1,29,5.9,43.2,10.4c2.4,0.8,4.8,1.7,7,2.9
		c31.9,18.1,64,36.1,94.5,56.5c6.9,4.5,13.4,9.6,20,14.6C1216,567.1,1217.9,567.8,1218,569.9z"/>
	<path class="st1" d="M1641.7,593.6c-11.9,20.9-25.1,41-39.2,60.5c-0.6,0.8-1.2,1.7-2,2.2c-8.5,5.2-17.8,8.3-27.2,11.2
		c-0.3-0.4-0.6-0.7-0.9-1.1c3.4-3.9,6.7-8.2,10.4-11.8c7.8-7.7,14.9-16.1,21-25.2c6.7-9.8,14.4-18.6,24.2-25.5
		c4.6-3.3,8.9-7.2,13.2-10.8C1641.4,593.3,1641.6,593.4,1641.7,593.6z"/>
	<path class="st1" d="M1828.6,388.3c-0.1,28.6-44.7,161.7-59.5,177.4c-1-1.8,0.3-3.2,0.9-4.6c5.2-12.1,9.6-24.5,13-37.1
		c8.7-32.5,19.6-64.3,32.8-95.3c4.9-11.3,7.6-23.3,10.8-35.2C1827.1,391.7,1827.1,389.7,1828.6,388.3z"/>
	<path class="st1" d="M1019.6,502.6c-16.7-1.5-33.6,1.1-50-5.6c-29.5-11.9-60.5-18.4-92.5-19.6c-1.6-0.1-3.2-0.3-4.8-1.3
		C922.7,476.9,972.5,482.5,1019.6,502.6z"/>
	<path class="st1" d="M1501,681.3c19.2-6.7,38.8-11.8,56.2-22.4c17.1-10.4,30.3-25.7,45.5-38c1.8,1.4,1.6,2.1,1.1,2.6
		c-12.5,16.8-26.4,32.3-42.3,45.9c-1.8,1.5-3.8,2.7-6.2,3.2c-17.1,4.1-34.4,6.8-51.7,8.6C1502.6,681.3,1501.8,681.3,1501,681.3z"/>
	<path class="st1" d="M1645.5,654.9c8.1-10.1,17.7-18.9,25.1-29.7c16.4-23.9,34.7-46.4,47.8-72.4c0.7-1.5,1.9-2.7,2.9-4.1
		c0.1,0.1,0.3,0.2,0.4,0.3c-1.4,5.3-3.9,10-6.3,14.9c-11.3,23.8-23.4,47-37.8,69c-2.5,3.8-5.5,7.2-9.4,9.7
		c-7.2,4.6-14.1,9.7-22.3,12.6C1645.7,655.2,1645.6,655,1645.5,654.9z"/>
	<path class="st1" d="M682.3,551.8c7-3.8,14.7-6,21.9-8.9c35.9-14.4,72.8-25.4,111.1-31.3c5.1-0.8,10.1-1.6,15.3,0
		c-12.5,2.4-24.8,6.2-37.2,8.8c-17.4,3.6-34.1,9.5-50.1,16.9c-13,6-27.4,6.8-40.9,10.6c-6.5,1.8-12.9,3.6-19.7,4.1L682.3,551.8z"/>
	<path class="st1" d="M716.3,552.1c11.8-6.5,24.6-9.1,37.6-11.1c31.5-5,63.2-8.3,95.1-7.1c7.4,0.3,14.8,0.8,22.1,1.4
		c-14.8-0.1-29.4,0.7-44,2.4c-3.6,0.4-7.5,0.4-11,1.4c-25.9,7.4-52.7,6.9-79,9.7C730,549.5,723.2,551.5,716.3,552.1z"/>
	<path class="st1" d="M1624,664.7c8.2-11.7,16.1-23.4,26.3-33.8c19.8-20.2,37.7-42.1,53.3-65.8c2.8-4.2,5.4-8.8,9.5-12.6
		c0.8,2.3-0.6,3.6-1.3,4.9c-15.4,25.3-31.5,50.1-50.4,73c-8.8,10.6-18.5,20.4-28.4,30.1c-2.3,2.2-5,4-8.2,4.9
		C1624.4,665.1,1624.2,664.9,1624,664.7z"/>
	<path class="st1" d="M1497.4,713.5c1.2-1.9,3-2.1,4.5-2.5c12.2-3.4,23.6-8.6,34.7-14.8c0.9-0.5,2-0.8,2.6-1.5
		c9.2-10.2,22-7.1,33.6-9.2c0.8-0.1,1.8-0.2,2.2,0.7s-0.3,1.6-0.8,2.2c-6.4,6.6-12.2,13.4-22,15.9c-16.4,3.9-32.7,7.7-49.4,9.7
		C1501.1,714.1,1499.4,714.7,1497.4,713.5z"/>
	<path class="st1" d="M1001.2,508.8c4.3,0.5,7.9,1,11.5,1.4c12.2,1.5,24.3,3.7,36.3,6.4c6,1.3,11.6,3.3,17,6.4
		c29.1,16.5,58.4,32.7,86.8,50.4c1.5,0.9,3,2,5.4,3.5c-3.2,0.8-4.9-0.9-6.5-1.8c-21.9-13-44.4-25.4-67.3-36.8
		c-24.5-12.2-50.3-20.7-77.1-26.5C1005.3,511.3,1003.2,511.4,1001.2,508.8z"/>
	<path class="st1" d="M1628,596c10.3-13.7,18.1-29,26.8-43.9c8.4-14.4,15.1-29.7,25.9-42.5c0.7-0.8,0.9-2.2,2.4-2.5
		c0.7,1.8-0.5,3.2-1.1,4.6c-8.7,20.1-17.2,40.2-27.9,59.3c-6,10.7-15.7,18.3-25.5,25.5C1628.4,596.4,1628.2,596.2,1628,596z"/>
	<path class="st1" d="M1511.1,669.2c14.3-6.6,24.8-18,36.8-27.3c1.3-1,2.8-1.9,4.4-2.3c8.4-1.9,16.5-4.9,24.6-7.6
		c1.1-0.4,2.5-1.2,4.3,0.6C1560.3,649.9,1536.7,661.6,1511.1,669.2z"/>
	<path class="st1" d="M1760.6,530.6c1.4-5.8,4.3-10.9,7.3-16.1c16-28.4,27.6-58.4,35.8-89.8c2.6-10.2,6-20.2,10.6-29.8
		c-1.3,6.1-2.6,12-4,18.1c-0.4,1.6-0.8,3.2-1.1,5c-6.5,39.9-25,74.8-45.4,108.8c-0.8,1.4-2,2.7-2.9,4L1760.6,530.6z"/>
	<path class="st1" d="M1444.1,776.7c-26.7,1.6-52.7-1.5-78.3-9.4C1393.2,761.1,1418.7,768.3,1444.1,776.7z"/>
	<path class="st1" d="M1277.9,654.7c6.4,1.7,11.8,5.6,17.9,8.1c18.5,7.6,36.4,16.8,56.2,20.7c2.7,0.5,5.4,2,8,3.1
		c0.9,0.4,1.9,0.7,2.6,2.5c-2.9,0-5.7,0-8.4,0c-13.4,0.1-25.6-4-37-11c-10.2-6.3-20.8-11.6-31.2-17.5c-2.9-1.6-6-3.1-8.4-5.6
		C1277.7,655,1277.8,654.9,1277.9,654.7z"/>
	<path class="st1" d="M1357.5,695.4c7.5-0.4,15-2.3,22.3,0.6c17.9,7.3,35.4,15.9,54.9,18.6c0.8,0.1,1.7,0.2,2.3,1.7
		C1409.2,713.9,1382.9,706.4,1357.5,695.4z"/>
	<path class="st1" d="M1659.9,659.3c-5.1,6.7-12.1,11-19,15.4c-11.1,7.1-22.5,13.3-34.8,18.3c-1.8,0.7-3.5,1.8-5.6,1.7
		c-0.5-1.7,0.7-1.9,1.5-2.3c5.4-2.3,9.7-6.2,13.7-10c12.3-11.8,28.5-16.6,43.4-23.8C1659.4,658.8,1659.7,659,1659.9,659.3z"/>
	<path class="st1" d="M1232.2,678.3c6.2,1.4,11.3,5.1,16.7,8.2c16.5,9.7,33.7,17.6,51.4,24.3c9.7,3.6,17.7,10.1,27.1,15.8
		c-3,0.7-5.1-0.5-6.9-1.2c-28.7-12-56.2-26.5-82.8-42.7C1235.9,681.3,1233.7,680.2,1232.2,678.3L1232.2,678.3z"/>
	<path class="st1" d="M1824,28.9c4.1,42.3,6,84.8,5.5,128.5C1827.4,146.5,1822.2,35.9,1824,28.9z"/>
	<path class="st1" d="M1070.5,575.4c-25-8.3-47.9-21.7-73.6-28.3C1025.4,546.1,1047.9,561,1070.5,575.4z"/>
	<path class="st1" d="M1815.7,91.9c9,28.9,4.8,58,2.1,87.2C1816.1,150,1816.8,121,1815.7,91.9z"/>
	<path class="st1" d="M1640.3,693.3c7.1-9.9,14-19.9,23.2-28.2c9.3-8.4,17.2-18.3,25.8-27.5c1-1.1,2.1-2.1,3.1-3.2
		c0.3,0.2,0.6,0.4,0.9,0.6c-14,20.3-29.7,39.4-47.7,56.4c-1.3,1.3-2.9,2.2-4.9,2.4C1640.7,693.6,1640.5,693.4,1640.3,693.3z"/>
	<path class="st1" d="M1347.5,656.9c2,0.8,4.1,1.4,6.1,2.3c20.9,9.2,41.5,19.3,64.3,23.4c1,0.2,1.9,0.5,2.7,0.7
		c0.3,1.2-0.5,1.4-1,1.4c-10.6,0.4-21.1,0.9-31-4.3c-13.9-7.5-28.1-14.6-41.2-23.3L1347.5,656.9z"/>
	<path class="st1" d="M870.6,563.4c30.2-1,60.5-4.1,90.3,3.9C930.7,565.5,900.6,565.1,870.6,563.4z"/>
	<path class="st1" d="M1637.7,688.6c-4.1,7.4-10.3,12-18.7,14.1c-13.1,3.2-26.1,7.4-39.7,8.5c-0.4-1.5,0.7-1.6,1.4-1.7
		c9.1-2,17.5-6,26.4-8.6c8.2-2.4,15.7-6.1,23-10.1c2.2-1.2,4.4-2.4,7-2.8C1637.3,688.2,1637.5,688.4,1637.7,688.6z"/>
	<path class="st1" d="M1385.1,742.3c-21.1-1.5-39.5-10.1-57.2-21.5C1337.3,720.7,1363.1,730.3,1385.1,742.3z"/>
	<path class="st1" d="M1080.9,583.9c6.2,1.2,12,3.3,17.4,6.4c20,11.3,39.7,23.1,58.6,36.3c1.1,0.8,2,1.7,3,2.6
		c-0.2,0.3-0.5,0.5-0.7,0.8c-26-15.8-52.2-31-78.8-45.6C1080.6,584.3,1080.7,584.1,1080.9,583.9z"/>
	<path class="st1" d="M1389.5,750.4c16.2,0.5,31.8-0.4,46.9,5.1C1426.2,761.9,1399.1,759.2,1389.5,750.4z"/>
	<path class="st1" d="M1626.6,653.2c-3.7,4.8-7.2,9.7-11.4,14c-5.5,5.7-13.3,5.9-20.4,7.6c-1.6,0.4-2-1-1.3-2.2
		c1.3-2.3,2.6-4.9,5.3-6c9.5-3.9,18.3-9,27.2-14.1C1626.2,652.7,1626.4,652.9,1626.6,653.2z"/>
	<path class="st1" d="M1441,708.5c-16.7-2.4-32.5-7.2-48.1-13.8c4.4-1.5,9-2.1,13.2-0.5C1417.9,698.7,1429.4,703.6,1441,708.5z"/>
	<path class="st1" d="M1624.7,585.5c-6.9,9.5-14.4,18.6-22.4,27.2c-4.5,4.8-10.7,6.6-16.6,9.5c-0.7-2.3,0.9-2.7,1.8-3.5
		c4-3.5,8.1-7.1,12.4-10.2c9.2-6.7,15.7-16.1,24-23.6C1624.1,585,1624.4,585.3,1624.7,585.5z"/>
	<path class="st1" d="M1077.7,611.6c-16.1-5.7-32.8-9.5-46.6-20.3C1047.2,596.6,1062.7,603.3,1077.7,611.6z"/>
	<path class="st1" d="M1599.1,680.7c0.2,0,1.3-0.2,1.4,0.8c0.1,0.6-0.5,1.6-1.1,2c-6.6,4.9-13.8,8.2-21.3,11.1
		c-0.8,0.3-1.8,0.5-2-0.6c-0.1-0.7,0.4-1.5,0.8-2.2C1581.9,684.1,1590,682.1,1599.1,680.7z"/>
	<path class="st1" d="M139.6,695.3c-21.3,8.6-42.8,17.1-65.1,23.3C96.2,710.8,117.2,701.4,139.6,695.3L139.6,695.3z"/>
	<path class="st1" d="M1588.6,670.6c-7.4,12.4-20.5,7.6-31,10.6C1567.5,676.3,1578.3,674.1,1588.6,670.6z"/>
	<path class="st1" d="M668.7,562.2c14.1-5.6,28.7-10.1,43.7-12.8C699,558.1,683.3,558.4,668.7,562.2z"/>
	<path class="st1" d="M1818.8,30.5c-1.1-9.2-8.1-16.2-8.6-25.5C1817.5,11.9,1820.7,20.3,1818.8,30.5z"/>
	<path class="st1" d="M1712.3,413.5c-3.1,16.2-8.5,31.7-13.8,47.2C1703.3,445.1,1706.5,428.9,1712.3,413.5L1712.3,413.5z"/>
	<path class="st1" d="M1628.7,587.6c-3.7,6.9-7.5,13.7-13.4,19c-0.4-0.3-0.8-0.6-1.2-0.9c4.8-6.2,9.5-12.2,14.3-18.4
		C1628.4,587.3,1628.6,587.5,1628.7,587.6z"/>
	<path class="st1" d="M850.3,474.2c-6,2.1-11.9,1.9-18,1.2C838.3,474.1,844.3,473.4,850.3,474.2z"/>
	<path class="st1" d="M1474,747c-5.2,3.3-10.5,3.3-16,1.4C1463.4,747.9,1468.6,747.4,1474,747z"/>
	<path class="st1" d="M1815.8,66.7c-2.5-5.5-2-11.3-1.3-17.3c0.9,5.7,1.9,11.2,2.8,16.9C1816.8,66.4,1816.3,66.6,1815.8,66.7z"/>
	<path class="st1" d="M1257.2,596.7c-1.3-0.9-3.1-1.2-3.7-3.4c2.2-0.1,3.3,1.2,4.5,2.5C1257.8,596.1,1257.5,596.4,1257.2,596.7z"/>
	<path class="st1" d="M1263.2,600.7c-1-0.7-2-1.4-3-2.1c0.2-0.3,0.5-0.5,0.7-0.8c1,0.6,2,1.3,3,1.9
		C1263.7,600.1,1263.4,600.4,1263.2,600.7z"/>
	<path class="st1" d="M1696.2,630.9c-0.5,0.8-1.1,1.6-1.6,2.4c-0.3-0.2-0.5-0.5-0.8-0.7c0.6-0.7,1.2-1.4,1.9-2.1
		C1695.9,630.6,1696,630.7,1696.2,630.9z"/>
	<path class="st1" d="M1628.3,587.2c0.2-0.2,0.6-0.7,0.6-0.7c0.6,0.5,0,0.7-0.2,1C1628.6,587.5,1628.4,587.3,1628.3,587.2z"/>
	<path class="st1" d="M1626.2,582c0.7-0.6,1.5-1.2,2.2-1.8l0,0c-0.6,0.8-1.1,1.5-1.7,2.3C1626.5,582.5,1626.4,582.2,1626.2,582z"/>
	<polygon class="st1" points="1715.5,549.8 1715.2,550.1 1715.1,549.8 	"/>
	<path class="st1" d="M1774.9,372c0-0.3,0.1-0.5,0.1-0.8C1775,371.5,1774.9,371.7,1774.9,372L1774.9,372z"/>
	<path class="st1" d="M139.7,695.4C139.6,695.4,139.6,695.4,139.7,695.4C139.6,695.3,139.7,695.4,139.7,695.4z"/>
	<path class="st1" d="M1712.4,413.6c0.1-0.3,0.2-0.5,0.2-0.8C1712.5,413,1712.4,413.3,1712.4,413.6
		C1712.3,413.5,1712.4,413.6,1712.4,413.6z"/>
	<path class="st1" d="M731.1,511.7c-0.4,0.2-0.8,0.6-1.2,0c0.3-0.2,0.5-0.3,0.8-0.5C730.8,511.4,730.9,511.6,731.1,511.7z"/>
	<polygon class="st1" points="602.5,547.9 602.3,548 602.6,547.9 	"/>
	<path class="st1" d="M682.5,552.1c-0.1,0.1-0.2,0.2-0.4,0.2c-0.1,0-0.1-0.2-0.2-0.2c0.1-0.1,0.2-0.2,0.3-0.2
		C682.3,551.8,682.5,552.1,682.5,552.1z"/>
	<path class="st1" d="M675.2,565c0.1-0.1,0.2-0.2,0.3-0.2c0,0,0.1,0.1,0.2,0.2c-0.1,0.1-0.2,0.1-0.3,0.2
		C675.4,565.2,675.2,565,675.2,565z"/>
	<polygon class="st1" points="1078.6,583.3 1078.4,583.2 1078.5,583.3 	"/>
	<path class="st1" d="M1080.4,584.5c-0.6-0.4-1.2-0.8-1.8-1.2l-0.1,0.1c0.8,0.2,1.6,0.4,2.3,0.6
		C1080.7,584.1,1080.6,584.3,1080.4,584.5z"/>
	<path class="st1" d="M1623.9,584.8c0.5-0.6,0.9-1.1,1.4-1.7c0.2,0.2,0.4,0.4,0.6,0.6c-0.4,0.6-0.8,1.2-1.2,1.8
		C1624.4,585.3,1624.1,585,1623.9,584.8z"/>
	<path class="st1" d="M1168.7,584"/>
	<path class="st1" d="M1259.1,597.9c-0.6-0.4-1.3-0.7-1.9-1.1c0.3-0.3,0.5-0.6,0.8-0.9c0.6,0.4,1.2,0.8,1.8,1.2
		C1259.6,597.3,1259.4,597.6,1259.1,597.9z"/>
	<path class="st1" d="M1688.5,625.3c-0.5,0.5-1,1-1.4,1.5l-0.3-0.3c0.3-0.7,0.6-1.4,0.9-2.1C1688,624.7,1688.3,625,1688.5,625.3z"/>
	<path class="st1" d="M1699.1,625.8c-0.4,0.7-0.7,1.3-1.1,2l-0.1-0.2c0.3-0.7,0.7-1.2,1-1.9L1699.1,625.8z"/>
	<path class="st1" d="M1733.5,625.7"/>
	<path class="st1" d="M1697.2,628.8c-0.3,0.7-0.6,1.4-1,2c-0.2-0.2-0.3-0.2-0.5-0.4c0.5-0.6,0.8-1.2,1.3-1.8L1697.2,628.8z"/>
	<path class="st1" d="M1161.2,631.1c-0.6-0.4-1.3-0.7-1.9-1.1c0.2-0.3,0.5-0.5,0.7-0.8c0.6,0.4,1.1,0.9,1.7,1.3
		C1161.5,630.8,1161.4,631,1161.2,631.1z"/>
	<path class="st1" d="M1164.5,632.8c-0.7-0.3-1.4-0.6-2.1-0.9c0.1-0.1,0.3-0.3,0.4-0.4C1163.3,631.9,1163.9,632.4,1164.5,632.8
		L1164.5,632.8z"/>
	<path class="st1" d="M1625.9,652.4c0.2-0.1,0.5-0.2,0.7-0.3c0,0.3,0,0.7,0,1C1626.4,652.9,1626.2,652.7,1625.9,652.4z"/>
	<path class="st1" d="M1345.4,656c-0.7-0.3-1.3-0.7-2-1l0,0C1344.1,655.4,1344.7,655.7,1345.4,656L1345.4,656z"/>
	<path class="st1" d="M1347.3,657.1c-0.6-0.4-1.3-0.7-1.9-1.1l0,0c0.7,0.3,1.4,0.6,2.1,0.9L1347.3,657.1z"/>
	<path class="st1" d="M1660.9,657.2c-0.3,0.7-0.7,1.3-1,2c-0.3-0.2-0.5-0.5-0.8-0.7c0.5-0.5,1-1,1.4-1.5L1660.9,657.2z"/>
	<path class="st1" d="M1323.4,666.9c0.1,0.2,0.2,0.4,0.3,0.6c-0.2,0-0.5,0-0.7-0.1C1323.1,667.3,1323.2,667.1,1323.4,666.9z"/>
	<path class="st1" d="M1703.2,462"/>
	<path class="st1" d="M1703.1,462.3c0-0.1,0.1-0.2,0.1-0.3"/>
	<path class="st1" d="M1692.5,634.4c0.4-0.6,0.9-1.3,1.3-1.8c0.3,0.2,0.5,0.4,0.8,0.7c-0.4,0.6-0.9,1.2-1.3,1.8
		C1693,634.8,1692.7,634.7,1692.5,634.4z"/>
	<path class="st1" d="M1755.8,466.1c-0.6,0.5-0.6,0.4-0.3-0.3C1755.5,465.9,1755.8,466.1,1755.8,466.1z"/>
	<path class="st1" d="M1275.9,693.1c0.1,0.1,0.2,0.2,0.3,0.3c-0.2,0-0.4,0.1-0.6,0.1C1275.7,693.4,1275.8,693.3,1275.9,693.1z"/>
	<path class="st1" d="M1120,502.4l-0.3-0.2L1120,502.4z"/>
	<path class="st1" d="M1120,502.4c0.8,0.2,1.5,0.4,2.3,0.7c-0.2,0.2-0.3,0.4-0.5,0.6C1121.2,503.2,1120.6,502.8,1120,502.4
		L1120,502.4z"/>
	<path class="st1" d="M555.3,528c-0.3,0-0.6,0.1-0.8,0.1c0.1-0.3,0.2-0.5,0.2-0.8C554.9,527.5,555.1,527.7,555.3,528z"/>
	<path class="st1" d="M1758.8,533.7l-0.1,0.2L1758.8,533.7z"/>
	<path class="st1" d="M1163.3,543"/>
	<path class="st1" d="M1167.7,544.5"/>
	<polygon class="st1" points="602.6,547.9 602.8,547.8 602.5,547.9 	"/>
	<path class="st1" d="M1721.2,548.7c0.7-0.6,0.6-0.2,0.4,0.3C1721.5,549,1721.4,548.8,1721.2,548.7z"/>
	<path class="st1" d="M145,786.7c-0.3,0-0.5,0.1-0.8,0.1c0.1-0.2,0.2-0.5,0.3-0.7C144.6,786.3,144.8,786.5,145,786.7z"/>
	<path class="st1" d="M1699.1,625.6l0.1,0.1L1699.1,625.6z"/>
	<path class="st1" d="M1733.5,625.7L1733.5,625.7L1733.5,625.7z"/>
	<path class="st1" d="M1628.4,580.2c0.3-0.3,0.7-0.7,1-1l0,0C1629,579.5,1628.7,579.9,1628.4,580.2L1628.4,580.2z"/>
	<polygon class="st1" points="1687.1,626.8 1686.8,626.8 1686.8,626.5 	"/>
	<path class="st1" d="M1697,628.6c0.3-0.3,0.7-0.6,1-1l0.1,0.2c-0.3,0.3-0.6,0.8-0.9,1.1C1697.2,628.9,1697,628.6,1697,628.6z"/>
	<path class="st1" d="M1629.4,579.2L1629.4,579.2L1629.4,579.2z"/>
	<path class="st1" d="M1162.3,632c-0.4-0.3-0.8-0.5-1.1-0.8c0.2-0.2,0.3-0.4,0.5-0.5c0.3,0.3,0.7,0.6,1,0.9
		C1162.6,631.7,1162.5,631.8,1162.3,632z"/>
	<path class="st1" d="M1164.5,632.8L1164.5,632.8L1164.5,632.8z"/>
	<path class="st1" d="M1154.1,538.1"/>
	<path class="st1" d="M1758.8,533.7L1758.8,533.7L1758.8,533.7z"/>
	<polygon class="st1" points="1760.9,530.8 1760.6,530.8 1760.6,530.6 	"/>
	<path class="st1" d="M1277.5,655.1v-0.4h0.4C1277.8,654.9,1277.7,655,1277.5,655.1z"/>
	<path class="st1" d="M1343.4,655L1343.4,655L1343.4,655z"/>
	<path class="st1" d="M1645.9,655.3h-0.4v-0.4C1645.6,655,1645.7,655.2,1645.9,655.3z"/>
	<polygon class="st1" points="1660.5,657 1660.9,656.8 1660.9,657.2 	"/>
	<path class="st1" d="M1624.6,665.3c-0.2-0.2-0.4-0.4-0.6-0.6C1624.2,664.9,1624.4,665.1,1624.6,665.3z"/>
	<path class="st1" d="M1225.1,575.2L1225.1,575.2L1225.1,575.2z"/>
	<path class="st1" d="M1232.2,678.3L1232.2,678.3L1232.2,678.3z"/>
	<path class="st1" d="M1641.2,593.1c0.2,0.2,0.4,0.3,0.5,0.5C1641.6,593.4,1641.4,593.3,1641.2,593.1z"/>
	<path class="st1" d="M1628.6,596.6c-0.4,0.3-0.8,0.5-1.2,0.8l0,0c0.2-0.4,0.4-0.9,0.6-1.3C1628.2,596.2,1628.4,596.4,1628.6,596.6z
		"/>
	<path class="st1" d="M1640.8,693.8h-0.5l-0.1-0.5C1640.5,693.4,1640.7,693.6,1640.8,693.8z"/>
	<path class="st1" d="M1260.2,598.7c-0.4-0.3-0.7-0.6-1.1-0.8c0.2-0.3,0.5-0.5,0.7-0.8c0.4,0.3,0.7,0.6,1.1,0.8
		C1260.7,598.2,1260.4,598.4,1260.2,598.7z"/>
	<path class="st1" d="M1627.4,597.4L1627.4,597.4L1627.4,597.4z"/>
	<path class="st1" d="M1126.8,603.8c-0.1-0.6,0-0.9,0.7-0.7C1127.2,603.3,1127,603.6,1126.8,603.8z"/>
	<polygon class="st1" points="1653.6,736.8 1653.8,736.7 1653.7,736.9 	"/>
	<path class="st1" d="M1653.7,736.9l-0.1-0.1L1653.7,736.9z"/>
	<path class="st1" d="M1580.5,739.5c0.5-0.1,0.7,0.1,0.6,0.6C1581,739.9,1580.8,739.7,1580.5,739.5z"/>
	<path class="st1" d="M1666.5,605.2c0.3-0.4,0.5-0.8,0.8-1.1c0.2,0.2,0.5,0.4,0.7,0.7c-0.3,0.3-0.7,0.7-1,1
		C1666.9,605.6,1666.7,605.4,1666.5,605.2z"/>
	<path class="st1" d="M1667.1,605.8c-0.2-0.2-0.4-0.4-0.6-0.5C1666.7,605.4,1666.9,605.6,1667.1,605.8z"/>
	<path class="st1" d="M1570.1,619.9c-0.6,0.1-0.9-0.1-0.7-0.7C1569.6,619.5,1569.9,619.7,1570.1,619.9z"/>
	<path class="st1" d="M1626.7,582.6c-0.3,0.4-0.5,0.7-0.8,1.1c-0.2-0.2-0.4-0.4-0.6-0.6c0.3-0.3,0.7-0.6,1-1
		C1626.4,582.2,1626.5,582.5,1626.7,582.6z"/>
	<path class="st1" d="M1637.1,688c0.5-0.1,0.7,0.1,0.6,0.6C1637.5,688.4,1637.3,688.2,1637.1,688z"/>
</g>
</svg>
