<?xml version="1.0" encoding="utf-8"?>
<!-- Generator: Adobe Illustrator 21.0.2, SVG Export Plug-In . SVG Version: 6.00 Build 0)  -->
<svg version="1.1" id="Calque_1" xmlns="http://www.w3.org/2000/svg" xmlns:xlink="http://www.w3.org/1999/xlink" x="0px" y="0px"
	 viewBox="0 0 1920 700" style="enable-background:new 0 0 1920 700;" xml:space="preserve">
<style type="text/css">
	.st0{fill:#40576E;}
</style>
<path class="st0" d="M1881.8,238.4c-13.2,33.2-30.6,64.8-52.9,92.7c-11.1,13.9-23.4,26.9-36.8,38.6c-7.1,6.1-14.5,11.9-22.3,17
	c-2.7,1.8-20.5,14.5-23.4,12.5c0.4,0.3,25.2-32.1,27.7-35.3c9.4-12.6,19.3-25,28.2-38c17.9-26.2,33.7-54.6,47.6-83.1
	c28-57.6,42.1-119.1,59.4-180.4c3.7-13.1,9.9-27.4,10.3-41.1c0.2-7.1,0-14.2,0-21.2c-6.7,38-16.2,75.9-26.4,113
	c-10.1,36.5-21.8,72.6-37,107.3c-14.2,32.5-31.3,63.8-50.7,93.5c-20,30.5-41.7,60.2-67.3,86.3c-11.9,12.1-31.5,16.7-47.8,19.9
	c-18.8,3.8-38.4,5.1-57.5,5.2c-37.1,0.1-73.9-6.9-108.6-20c-32.4-12.2-63.8-27.7-93.6-45.4c-30.9-18.3-59.6-40.1-90.2-58.9
	c-32.4-19.9-66.2-37.7-100.1-55c-33.2-16.9-66.3-31.3-102.7-40c-36.6-8.7-74.1-9.3-111.6-10.2c-38.4-0.9-77.9-3.5-116.1,2
	c-37.9,5.5-75.5,14.2-112.7,22.9c-17.9,4.2-35.8,8-53.1,14.6c-17.4,6.6-34.3,14.2-51.6,21c-34.5,13.6-68.5,28.4-101.8,44.9
	c-35.2,17.4-71,32.9-107.3,47.9c-71.9,29.8-144.6,57.4-217,86.1c-70,27.8-141.2,52-212.9,75.2c-8.6,2.8-17.3,5.5-26,8
	c-7.5,2.1-19.2,7.4-27.1,6.4c0,1.8,0,3.7-0.1,5.5c34.9-9,69.7-18.5,104-29.5c17.2-5.5,34.1-11.6,51-17.7
	c16.7-6.1,33.8-10.7,50.7-16.1c33.5-10.6,66-24.6,98.6-37.8c33.7-13.6,67.6-26.3,101.4-39.7c18.6-7.3,37.1-14.8,55.6-22.3
	c9.3-3.8,18.5-7.5,27.8-11.3c8-3.2,18-9.5,26.7-10c-0.9,2.8-5,3.9-7.4,5c-4,2-8,4-12.1,5.9c-8.9,4.2-17.9,8.3-26.9,12.3
	c-16.4,7.2-33,14.1-49.6,20.9c-34.2,14.1-68.4,28.2-102.9,41.6c-67.8,26.2-134.8,54.8-203.5,78.7c-19.4,6.8-39,13-58.6,19.3
	c-9.5,3-19,6.4-28.4,9.9c-5.1,1.9-10.2,3.8-15.4,5.7c-3.4,1.2-11.1,2-11.1,5.6c11.4-2.4,22.4-7.2,33.5-10.9
	c12.3-4.2,24.7-8.1,37.1-12.1c24.3-7.8,48.7-15.6,72.5-24.7c48.4-18.4,96.4-38,144.5-56.9c48.3-19,96.5-38.2,144.4-58.1
	c47.3-19.7,93.1-42.5,139.9-63.4c25.7-11.5,51.9-22,78.3-31.7c12.8-4.7,25.8-9.2,38.7-13.5c6.7-2.2,13.5-4.4,20.2-6.6
	c5.8-1.8,12.5-4.9,18.7-4.9c-1.1,3.5-11,5.6-13.8,6.7c-6.4,2.5-12.7,5.1-19.1,7.6c-12.3,4.9-24.6,9.8-36.8,14.6
	c-24.2,9.7-48.2,19.4-71.7,30.8c-46.1,22.3-92.1,43.6-139.6,62.9c-47.9,19.4-95.7,38.7-143.9,57.1c-48.8,18.6-96.6,39.5-146.1,56.5
	c-27,9.3-54.3,17.5-81.2,27c-13.6,4.8-27.1,9.7-40.8,14.1c-6.6,2.1-13.3,4.2-20.1,6c-3.1,0.8-6.2,1.9-9.4,2.6
	c-3.7,0.7-5.2-0.2-5.2,3.9c14.8-2.2,29-7.8,43.1-12.5c14.7-4.9,29.3-9.7,43.9-14.7c28.8-9.8,57.5-19.7,86.1-30
	c57.8-20.8,114.7-43.8,171.7-66.7c56.8-22.8,114.3-44.5,170.3-69.3c54.3-24,107.1-51,162.6-72.3c61.1-23.4,126.9-44.4,192.9-44.4
	c0.2,2.4-32.5,8.4-36.8,9.3c-14.2,3-28.1,6.5-41.8,11.4c-28.6,10.1-56.5,22.3-84.4,34.2c-56.6,24.1-111.8,51-168.3,75.3
	c-56.4,24.3-113.5,46.9-170.9,68.7c-28.9,11-57.6,22.3-86.3,34c-28.5,11.6-57.4,21.2-86.6,30.7c-32.9,10.7-65.3,22.9-98.4,33.1
	c-16.3,5-32.7,9.8-49.2,14.4c-8.2,2.3-16.5,4.6-24.7,6.8c-4.3,1.2-8.7,2.3-13.1,3.4c-3.3,0.9-10.1,1.1-10.1,4.7
	c14.8-2,29.4-7.1,43.7-11.2c14.5-4.2,28.9-8.5,43.3-12.9c29.2-9,58.4-18.2,87.5-27.6c56.8-18.3,112.2-40.8,167.7-62.6
	c15.7-6.2,31.5-12.4,47.3-18.3c7.4-2.7,14.8-5.5,22.1-8.3c7.6-2.9,15.7-7.5,23.8-8.6c-2.7,4.4-13,6.6-17.4,8.4
	c-7.2,3-14.4,5.9-21.6,8.9c-14.4,5.8-28.9,11.6-43.4,17.3c-29,11.4-58.1,22.6-87.1,34c-57.9,22.9-115.5,45.8-174.7,65.2
	c-16.2,5.3-32.4,10.5-48.7,15.3c-8.1,2.4-16.3,4.7-24.5,6.8c-4.3,1.1-8.7,2.2-13,3.3c-0.9,0.2-4.8,0.8-5.2,1.2c-0.7,0.9,0,5.4,0,6.5
	c14-2.4,27.5-8.8,40.9-13.2c14.2-4.7,28.6-8.9,43.1-12.8c29.3-7.7,58.3-16,87-25.9c28.3-9.7,56.6-18.9,85-28.1
	c28.3-9.2,56-20.4,83.6-31.6c57.3-23.2,115-45,172.4-68.1c56.6-22.8,112.4-46.5,167.6-72.6c16.2-7.6,32.4-15,48.8-22.3
	c13.8-6.1,27.3-13.1,41.6-17.8c30.2-9.9,62.6-12.4,94-15.5c-4.3,3.4-11.5,3.2-16.6,4.1c-7.5,1.4-14.9,2.9-22.4,4.6
	c-14.7,3.3-29.5,6.7-43.7,11.4c-14.4,4.7-28.2,10.8-42.2,16.6c-13.7,5.6-27.6,10.5-41.3,16c-55.3,22.6-108.4,50.5-163.2,74.1
	c-56.9,24.5-114.6,46.9-172.3,69.1c-28.6,11-57,22.5-85.3,34.2c-27.9,11.5-56.6,21-85.2,30.6c-32.2,10.8-64.2,22.4-96.6,32.7
	c-16.7,5.3-33.4,10.4-50.3,15.3c-8.2,2.4-16.4,4.7-24.7,6.9c-4.3,1.2-8.7,2.4-13,3.5c-4.2,1-7.1,0.1-7.1,4.8
	c55.7-13.2,109.8-32.2,164-50.4c27.1-9.1,54.4-17.3,81.1-27.7c26.6-10.3,52.7-21.9,79.3-32.1c54.7-21.1,109.3-42.7,163.6-64.7
	c27-10.9,54.1-21.7,80.6-33.7c26.3-11.9,52.3-24.6,78.5-36.7c28.8-13.3,58-25.5,87.7-36.5c14.4-5.4,29-10.4,43.6-15.2
	c7.5-2.5,15.1-4.9,22.7-7.2c5.6-1.7,13.7-5.9,19.6-4.3c-54.2,21-107.9,43.2-161.5,65.7c-26.4,11.1-52.9,22-79.2,33.5
	c-25.7,11.3-50.7,24.1-76.2,35.8c-51.9,23.7-106.2,42-159,63.5c-26.2,10.7-52.5,21.4-79.1,31.1c-26.5,9.6-53.4,17.8-80,27.1
	c-30.8,10.8-61.8,20.7-93.1,29.9c-15.2,4.5-30.4,8.8-45.7,13c-7.9,2.1-15.7,4.3-23.6,6.3c-6.9,1.8-16.1,5.9-23.3,5.1v3.2
	c19.2-4,37.8-10,56.8-14.9c19.4-5,38.7-9.9,57.8-16c18.6-6,37-12.5,55.4-18.9c9.2-3.2,18.4-6.4,27.7-9.4c4.7-1.6,9.4-3,14.2-4.5
	c2.8-0.8,12.3-4.8,13.5-2.5c-37.6,15.1-76.1,26.9-114.3,40.1c-19.4,6.7-38.6,13.7-58.2,19.8c-9.8,3.1-19.6,6-29.5,8.6
	c-5,1.3-10,2.5-15.1,3.7c-1.7,0.4-3.6,0.5-5.2,1.1c-3.6,1.3-3.2,0.1-3.2,4.5c5.9-0.2,11.4-2.9,17.4-3.3c-3.4,1.7-7,3-10.6,4
	c-3.9,1.1-6.7,0.2-6.7,4.7c28.2-7.2,55-19.3,82.9-27.7c27.2-8.2,54.8-14.5,81.8-23.5c27.9-9.3,55.4-19.9,83.7-28.2
	c27.6-8.1,54.6-18.2,81.3-28.9c54.8-22,109.9-43.2,164.7-65c54.8-21.9,110.1-43.2,163.5-68.4c29.2-13.8,58.1-28.1,87.5-41.4
	c28.2-12.8,57.9-15.8,88.1-19.8c0.9,2.1-11.6,3.5-13.4,4c-7.3,1.7-14.5,3.8-21.6,6.2c-12.6,4.2-25,9.1-37.4,14.1
	C734.9,362,708.1,372,682,383.9c-53.8,24.3-107,49.8-161.5,72.7c-56.1,23.5-112.8,45.2-169.4,67.3c-27.8,10.9-55.4,22.3-83.2,33.2
	c-27.4,10.8-55.4,19.4-83.3,28.8c-31.3,10.5-62.3,22-93.9,31.6c-15.8,4.8-31.7,9.4-47.6,13.8c-7.8,2.2-15.5,4.3-23.3,6.4
	c-4.2,1.1-8.3,2.3-12.6,3.3c-4.1,0.9-6.6-0.1-6.6,4.5c34.8-8.9,69.6-17.7,103.8-28.9c16.9-5.5,33.8-11.5,50.5-17.6
	c16.4-5.9,33.1-10.4,49.7-15.6c32.8-10.3,64.6-23.5,96.4-36.6c33.5-13.8,67.3-26.7,101.1-39.7c66.6-25.7,132.5-53.1,197.7-82.3
	c32.8-14.7,65.2-30.4,98.1-44.9c32.4-14.3,65.7-26.4,99.5-37.1c36.9-11.7,73.3-20.4,112.2-18.8c20.1,0.8,40.2,2.1,60.2,3.6
	c10.1,0.7,20.1,1.5,30.1,2.6c5.5,0.6,10.9,1.2,16.4,2c3.7,0.5,10.7,0.1,13.5,2.6c-1.6,1.7-7.5,0.4-9.6,0.3
	c-4.6-0.2-9.1-0.3-13.7-0.4c-9.1-0.1-18.3-0.1-27.4,0.2c-18.2,0.5-36.1,2.9-54.2,4.1c-17.6,1.1-35,1.2-52.4,3.6
	c-17.5,2.5-34.7,6.1-52,9.7c-34.1,7.1-67.2,15.6-99.9,27.8c-32.2,12-63.4,26.2-94.6,40.6c-132,60.8-266.4,116.4-402.6,167.1
	c-37.9,14.1-75.9,27.9-114.3,40.6c-18.7,6.2-37.5,12.2-56.4,17.9c-9.5,2.8-18.9,5.6-28.4,8.2c-5,1.4-10.1,2.8-15.1,4.2
	c-1.4,0.4-2.9,0.9-4.3,1.2c-3.8,0.7-4.4-0.6-4.4,3.5c30.9-5.8,60.4-16.3,90.1-26.3c30-10.1,60-20.3,90.2-29.9
	c29.3-9.4,57.5-21.6,86-33.2c29.6-12,59.4-23.3,89.1-35c59.1-23.3,118.7-45.8,176.6-71.7c57-25.5,112.7-53.2,171-75.6
	c31.5-12.1,63.1-23.2,96-30.9c16.5-3.9,33.1-7.2,49.8-9.9c8.6-1.4,17.2-2.7,25.8-3.8c3.9-0.5,7.8-1,11.7-1.5
	c2.9-0.3,8.5-2.1,11.4-0.7c-1.2,2.9-17.2,3.6-20.4,4.2c-7.6,1.5-15.2,3.2-22.8,5.1c-14.6,3.7-29,8.2-43.3,13.1
	c-29.1,10-57.9,21.3-86.1,33.5c-57.3,24.8-113.3,52.5-170.9,76.8c-59.4,25-119.8,47.6-179.6,71.7c-28.7,11.6-57.1,23.9-86.1,34.6
	c-29.8,11-59.9,20.9-90,31.1c-33.5,11.4-67.1,22.5-101,32.7c-17.2,5.2-34.4,10.1-51.7,14.8c-8.2,2.2-16.5,4.4-24.8,6.4
	c-4.3,1.1-8.6,2.1-12.9,3.2c-1.8,0.5-4.2,0.6-5.8,1.3c-2.6,1.1-2.4-0.5-2.4,3.2c19.3-3.2,38-9.5,56.9-14.3
	c19.2-4.8,38.3-10.2,57.2-16.1c37.2-11.6,73.7-25.2,111-36.6C263,598.1,299,582.5,335.4,568c37.5-14.9,75.2-29.2,112.8-44.1
	c37.7-14.9,75.3-30,112.8-45.3c36.5-15,72.1-32.2,107.7-49c35.3-16.7,71.1-32.1,107.8-45.6c36.8-13.6,74-26.2,112.7-33.4
	c21.8-4.1,44.8-8.9,67-8.3c21.8,0.6,43.8,1.9,65.5,3.4c22.8,1.6,45.6,4,68.1,7.9c10.1,1.7,20,4,29.7,7.5c4.7,1.7,9.2,3.6,13.8,5.5
	c2.8,1.2,12.6,3.8,13.1,7.3c-9.2,0.9-19.4-3.2-28.4-4.6c-9.8-1.5-19.7-2.3-29.6-2.9c-20.1-1.1-40.2-1.6-60.3-2.1
	c-40.2-1-80.9-3.2-120.7,3.5C869.5,374,831,381,794.7,393.5c-36.5,12.5-72.6,27-107.8,42.8c-35.3,15.9-70.1,33-105.5,48.7
	c-36.4,16.1-73.2,31.5-110.1,46.5c-37,15-74.3,29.3-111.6,43.6c-37,14.3-73.3,30.4-110.7,43.6c-41.3,14.5-82.8,28.8-124.4,42.4
	c-21.4,7-43,13.5-64.7,19.7c-10.4,3-20.8,5.9-31.3,8.7c-5.2,1.4-10.4,2.9-15.7,4.3c-2.5,0.7-5,1.3-7.5,1.9c-3.9,0.9-4.9,0.3-4.9,4.3
	c34.4-9.5,69.2-17.3,103.1-28.6c33.2-11.1,65.9-23.6,99.5-33.4c34-9.9,66.7-24.2,99.6-37.2c34.5-13.6,68.9-27.2,103.4-40.9
	c65.9-26.1,132.1-51.7,196.4-81.5c31.7-14.7,62.7-30.9,94.8-44.7c31.6-13.5,63.7-25.6,96.3-36.3c65.1-21.5,133.5-32.7,202.1-31.6
	c35.3,0.6,70.9,1.9,106,6c17.6,2.1,35.2,4.8,52.5,8.9s32,12.8,47.4,21.4c29.7,16.6,59,33,86.7,52.8c27.6,19.7,55.9,37,85.7,53
	c15.1,8.1,30.4,15.9,46.1,22.6c15.6,6.7,32,11.3,47.4,18.5c14.9,7,29.1,15.5,44.3,22.1c15.1,6.6,30.3,12.8,46.1,17.5
	c33.5,10,66.4,9.5,101,8.2c34.3-1.3,67.5-4.7,100.4-15c15.1-4.7,31.2-9.8,44-19.3c12.9-9.5,25.8-19.5,36.9-31.1
	c24.2-25.4,46-52.6,67.2-80.6c3.6-4.8,10.6-11.6,12.2-17.2c0.8-2.9,0-7.1,0-10.1c-16.9,28.3-40.4,54.4-64.4,76.8
	c-24.3,22.7-55.2,36.8-86.6,46.9c-16.6,5.3-34.4,10.2-52,9.9c10.7-4.7,22.1-7.4,32.5-12.9c9-4.7,17.2-10.9,25.2-17.1
	c9.2-7.1,18.6-13.7,27.9-20.6c9.4-7,18.5-15,28.7-20.8c9.2-5.3,19.4-8.5,28.5-14.2c9-5.6,17.4-12.2,25.2-19.3
	c8.4-7.6,16.2-15.7,24.1-23.8c2.8-2.9,9.8-8.3,10.9-12c0.6-2.1,0-5,0-7.1c-10.3,11.5-20.5,22.9-32.2,33c-5.6,4.8-11.4,9.3-17.5,13.4
	c-5.6,3.8-12.8,9.6-19.6,10.3c16.6-20.1,32.4-40.8,47.6-62c3.8-5.4,7.6-10.7,11.4-16.1c3-4.3,9.1-10.2,10.4-15.2c1-4,0-9.5,0-13.6
	c-6.4,9.3-13.1,18.3-20.6,26.6c-6.8,7.6-15.1,13.7-22,21.2c1.6-5.9,6.1-11.8,9.1-17.1c3.8-6.8,7.7-13.7,11.6-20.5
	c7.1-12.6,15.3-25.3,20.8-38.7c2-4.9,1.1-10.5,1.1-15.7c0-5.4,0-10.8,0-16.2c-18.8,29.7-38.9,61-64.5,85.5
	c-2.3-2.2,17.9-32.6,20.1-36.5c8.1-14,16-28.2,23.4-42.7c7.2-14.1,14-28.4,19.6-43.1c2.3-6,1.4-12.6,1.4-19
	c-11.5,20.1-24.9,39.5-38.7,58.1c-4.2,5.7-11.2,14.8-15.7,20.2c-2.1,2.6-6.5,10.5-9.7,11.4c-4.6,1.2,1.6-7.9,2.5-9.6
	c3-5.8,5.8-11.6,8.6-17.5c5.3-11.4,10.1-22.9,14.4-34.7c4.2-11.6,9.1-21.8,15-32.7c6.3-11.6,12.7-23.1,18.8-34.9
	c2-3.8,4.4-7.4,4.9-11.6c0.3-2.7,0-5.5,0-8.2c-5.8,12.3-11.3,25-18.2,36.7c-2.8-1.8,12-35.4,13.8-40.6c1.7-4.8,3.9-9.7,4.4-14.7
	c0.3-3.1,0-6.3,0-9.4c-4.1,12.9-8.3,25.8-13.4,38.3c-1.9-7,3.2-17.4,4.9-24.2c2.6-9.8,5.6-19.6,7.8-29.5c1.7-7.2,0.7-15.2,0.7-22.6
	C1909,158.3,1897.4,199.4,1881.8,238.4z M1766.8,397.8c8.7-7.1,18.1-13.4,26-21.4c6.7-6.8,13-14.9,20.8-20.4
	c-8,7.6-14,17.9-21.5,26.1c-3.7,4.1-7.5,8.8-12.1,12.1c-4.6,3.3-10.1,5-15.2,7.3C1764.2,399.5,1765.4,398.8,1766.8,397.8z
	 M1797.6,449.5c-4.2,4.2-10,5.6-15.7,6.7c-4.8,1-12,2.9-6.5-4c3.7-4.6,10.7-6.1,15.9-8.6c3.5-1.7,7-3.5,10.4-5.3
	c1.8-1,7.7-3,8.6-4.7C1810.3,437.9,1800.8,446.3,1797.6,449.5z M1798.4,465.6c7.4-6.7,16.2-11.4,25.2-15.5
	c7.4-3.3,19.4-5.8,25.1-11.6c-2.6,10.1-20.6,18-28.9,22.7c-5.9,3.4-11.9,6.6-18.1,9.5c-5.4,2.6-14.1,8.2-20.3,7.9
	c-0.8-2.6,5.4-4.2,6.9-5.1C1792.1,471.3,1795.3,468.5,1798.4,465.6z M1628.5,529.5c-18.4,2.9-36.3,4.5-54.7,1
	c-8.3-1.6-16.5-3.9-24.5-6.5c-8.2-2.6-18.8-4.8-25.9-9.8c61.3-0.2,122.3-10.2,183.6-6.8c-10.6,8.4-22.8,11.7-35.8,14.6
	C1657,525.1,1642.7,527.3,1628.5,529.5z M1640.6,534.5c-5.8,3.5-11.7,3.5-17.8,1.5C1628.8,535.5,1634.6,535.1,1640.6,534.5z
	 M1598.8,543.6c-11.4,6.8-41.6,4-52.2-5.4C1564.5,538.7,1582,537.7,1598.8,543.6z M1694.5,473.1c2.5-0.1,4.9-0.6,7.1,1
	c-6.2,6.5-18.7,9.4-26.9,12.5c-9.8,3.7-20,8.5-30.6,9.1c-20.2,1.1-41.7-8.1-60.3-15.1c-2.2-0.8-6.1-1.6-3.4-4.3
	c1.8-1.8,11.4-1.3,13.7-1.5c10.6-1.2,21.3-2.5,32-2.7c10.9-0.2,21.6,1.5,32.5,1.9C1670.7,474.4,1682.6,473.7,1694.5,473.1z
	 M1670.7,464.6c21.8-7.3,44.6-12.9,64.4-25c9.6-5.8,18.3-13.1,26.7-20.5c4.2-3.7,8.4-7.4,12.6-11.1c1.2-1,10.8-10.4,10.7-5.4
	c0,3-7.7,9.8-9.4,11.9c-3.6,4.3-7.4,8.5-11.2,12.7c-7.7,8.3-15.9,16.3-24.8,23.4c-8.7,7-21.4,7.8-32.1,9.6
	C1695.6,462.1,1682.8,464.6,1670.7,464.6z M1533,461.9c-0.2-0.1,4.1,2.2,4.1,2.6c0.1,2.3-1.3,1-2.9,1.2c-2.7,0.3-6.1-0.8-8.8-1.3
	c-6.6-1.1-13.3-2.4-19.6-4.5c-12.4-4.2-24.2-11.2-35.6-17.6c-23.4-13.2-45.7-28.1-68.1-42.9c-45.3-29.7-93-55.7-141-80.8
	c-27.7-14.5-56.7-24-86.5-33.2c3.3-2.5,10.5,0.3,14,1c7,1.3,13.9,2.8,20.8,4.4c12.5,3,24.8,6.7,36.9,10.9
	c24.7,8.5,48.4,19.4,71.5,31.7c24,12.8,48.6,25.3,71.5,39.9c11,7,21.1,15.2,32.3,21.8c10.9,6.4,21.7,12.7,32.1,19.9
	C1479.1,432.2,1505.6,448,1533,461.9z M1495.3,436.6c14.2,5.8,28.4,12,42.7,17.5c7.5,2.9,15,5.6,22.7,7.8c3,0.8,20.7,3.8,20.2,6
	c-0.5,1.9-18.7,0.3-20.8,0.1c-8-1-14.6-4.4-21.6-7.9C1523.8,452.7,1509.7,444.5,1495.3,436.6z M1473.3,450.2
	c-5.4-2.6-12.1-3.7-17.8-6.1c-6.3-2.7-12.7-5.3-19.1-8c-11.8-5.1-23.3-10.7-34.6-16.7c-22.6-11.9-44.4-25.2-65.8-39.2
	c-22-14.4-44-28.8-66.7-42.1c-11.6-6.8-23.3-13.4-35-19.9c-11.8-6.5-24.8-11.8-36-19.2c5-0.7,10.9,2.5,15.4,4.1
	c6.5,2.3,12.9,4.8,19.2,7.4c11.9,4.9,23.5,10.3,35,15.9c23.5,11.7,46.4,24.7,69.4,37.3c23.5,12.9,45.9,26.7,67.9,42
	c11,7.7,22.2,15.1,33.6,22.3c6,3.9,12.1,7.7,18.2,11.5C1461,442.1,1471.1,446,1473.3,450.2z M1186.6,296.1
	c34.4,18.6,69.4,36.6,102.6,57.3c-5.6,1.5-13.4-5.4-17.9-7.9c-7.2-4-14.4-7.9-21.6-11.7c-15.2-8-30.5-15.9-46.1-23.1
	c-14.4-6.7-29.4-12.3-44.6-16.9c-7.4-2.3-14.9-4.3-22.5-6.2c-5.9-1.4-18-1.5-22-6.5c12.4,1.4,24.8,2.8,37.1,5.1
	C1163.6,288.3,1175.7,290.3,1186.6,296.1z M1148.2,296.3c44.5,12.1,85.1,32.2,125.4,54.3c20.7,11.3,41.3,22.8,61.5,34.9
	c9.6,5.8,19.7,11.4,28.8,17.9c9.1,6.5,17.9,13.4,27.3,19.6c21.9,14.4,44.6,27,67.5,39.6c-8.4,2.1-20.4-4.2-28.2-6.9
	c-11-3.8-21.8-8.1-32.4-12.9c-20.7-9.2-40.6-20.1-60-31.7c-42-25-82.8-51.9-125-76.4c-11.6-6.7-23.2-13.3-35.1-19.6
	c-11.8-6.2-25.1-11.1-35.8-19.1C1144.3,294.9,1146,295.8,1148.2,296.3z M1431.3,442.7c-2.8-1.6-8-3.4-9.3-6.4
	c7.9,1.4,15.2,6.7,22.6,9.7c8.3,3.4,16.5,6.9,24.8,10.2c8.3,3.3,16.7,6.3,25.3,8.6c5.2,1.4,19.5,2.3,21.8,8.2
	c-14.9,0-28.7-1-42.4-7.4C1459.6,458.8,1445.4,450.4,1431.3,442.7z M1535.7,480.4c11.2,4.3,22.1,9,33.5,12.9
	c5.5,1.9,11,3.5,16.6,4.8c3.1,0.7,12.2,0.5,13.6,3.9c-30.5-2.6-60.1-10.8-88.4-22.3C1519.2,479.2,1527.7,477.2,1535.7,480.4z
	 M1550.4,478.8c9.9-3.3,17.7,0.6,26.9,4.2c8.9,3.5,17.7,7.1,26.6,10.6C1585.5,491,1567.5,485.9,1550.4,478.8z M1406,378.9
	c-2.7-1.8-10-4.5-10.9-7.9c2.9-0.1,5.4,2.9,7.6,4.4c3.4,2.3,7.1,4,10.8,5.8c8.4,4.1,16.7,8.3,25,12.8c16.1,8.8,32.8,16.3,49.9,22.8
	c17.1,6.6,34.1,13,50.4,21.4c8.4,4.3,16.8,8.3,25.5,11.7c4,1.6,8,3,12,4.6c3.6,1.4,10.1,2.5,12.6,5.5c-10,2-22.2-2.6-31.5-5.6
	c-16.6-5.3-32.8-11.9-48.7-19C1473.2,419.7,1437.7,401.6,1406,378.9z M1475.8,405.9c-40.7-16.7-78.4-38-115-62.4
	c-18.9-12.6-38-24.8-57.4-36.7c-9.8-6-19.7-12.1-29.9-17.5c-9.1-4.8-18.7-9.3-27.2-15.3c41.8,14.7,80.4,37.4,118.9,59.2
	c19.9,11.2,39.8,22.8,58.7,35.8c9,6.2,17.8,12.7,26.7,19c4.8,3.4,9.7,6.6,14.7,9.7c4.6,2.8,10.6,5,14.4,8.7
	C1478.4,407.5,1477.1,406.5,1475.8,405.9z M1329.9,326.6c5.2,3.3,10.3,6.9,15.3,10.5c2.6,1.9,10.2,5.3,10.6,9
	c-2.9,0.7-6.7-3.1-9-4.4c-3.8-2.3-7.6-4.6-11.4-6.8c-8-4.7-16.1-9.3-24.2-13.8c-16.3-9-32.7-17.7-49.2-26.3
	c-15.9-8.3-31.6-17.1-48.1-24.1c-8.3-3.5-16.8-6.7-25.3-9.5c-4.1-1.4-8.2-2.7-12.3-3.9c-3.5-1.1-10.6-1.9-12.7-4.9
	c3.6-2.6,16.7,1.8,20.7,2.6c7.2,1.5,14.4,3.2,21.5,5.2c15.1,4.2,27.7,11.1,41.4,18.6C1275.1,294.1,1303,309.6,1329.9,326.6z
	 M1281.2,309.7c-20.8-8-41.8-15.9-63.3-22c-10.1-2.9-20.3-5.3-30.5-7.3c-10.5-2-21.5-2.2-32-4.5c-9.9-2.2-19.5-7.2-29.1-10.6
	c-9.7-3.5-19.4-6.6-29.3-9.5c-20.9-6-42.1-10-63.8-11.9c9.1-2.1,20-0.4,29.2,0.3c15.7,1.2,31.4,3,47,5.1
	c34.4,4.6,66.8,12.2,99.3,24.8C1233.8,283.8,1258.1,295.7,1281.2,309.7z M1135,274.5c-13.9-1.2-28,0.1-41.8-2.3
	c-13.9-2.3-27.1-8.8-40.6-12.7c-13.2-3.7-26.6-6.6-40.1-8.6c-7.2-1.1-14.5-1.9-21.8-2.5c-5.6-0.4-14.7,0.9-19.6-2.2
	C1026.7,247.1,1083,253.3,1135,274.5z M1114.6,288.6c13.5,2.2,25.4,9.5,37.3,15.8c12.2,6.5,24.3,13,36.4,19.6s24.1,13.3,36,20.2
	c6.2,3.6,12.3,7.2,18.4,10.8c4.3,2.6,13.1,5.8,15.6,10.3c-4.2,1.2-10.8-4.7-14.2-6.5c-5.9-3.2-11.8-6.2-17.8-9
	c-11.3-5.3-22.8-10.1-34.5-14.3c-23.7-8.6-48.6-13.7-71.8-23.6c-23.6-10.2-48.1-17.9-73.3-23c-12.6-2.5-25.3-4.4-38.1-5.5
	c-6.9-0.6-13.8-1-20.7-1.3c-4.4-0.1-13,1.4-16.5-1.5c23.4-3.6,47.3-1.4,70.8,0.1C1066.4,282.3,1090.6,284.7,1114.6,288.6z
	 M975.2,286.1c25.9,1.7,51.8,4.5,77.2,9.6c12.7,2.6,25.3,5.7,37.6,9.6c5.3,1.7,11.2,3.2,16.2,5.5c7.6,3.5-1.9,3.4-5.6,3.2
	c-27-1.3-53.7-5.3-80.7-6.6c-26.9-1.3-53.9-2-80.9-2.4c-15.2-0.2-30.5-0.9-45.7-0.2c-7.1,0.3-14.2,0.9-21.3,1.6c-4,0.4-8,0.8-12,1.2
	c-2.5,0.3-6.6,1.7-8.9,0.5c0.5-3,9.8-4.4,12-5.1c5-1.6,10-3.1,15-4.5c10.5-3,21.1-5.5,31.8-7.7c10.3-2.1,20.6-4.2,31-5.6
	C952.4,283.7,963.7,285.3,975.2,286.1z M1191.6,351.9c-27.8-8.8-53.3-23.1-81.9-30.1C1141.5,320.7,1166.4,336.6,1191.6,351.9z
	 M1166.6,334.3c-0.8-0.4-1.6-1-2.3-1.6c3-1.9,10.5,1.9,13.4,2.9c5.2,1.6,10.4,3.3,15.6,5.1c10.7,3.7,21.2,7.9,31.5,12.4
	c20.2,8.8,39.8,19.1,58.7,30.5c19.8,11.9,39.2,24.5,59.2,36.1c9.9,5.7,19.9,11,29.9,16.4c10.1,5.4,18.8,13.1,28.2,19.5
	c10,6.9,20.5,13.2,31,19.4c5.4,3.2,10.9,6.3,16.4,9.5c2.4,1.4,12.8,5.2,12.6,8.5c-13.2-1.9-24.1-11.1-35-18.2
	c-11.9-7.8-23.8-15.6-35.9-23.1c-24-15-48.7-28.9-73.4-42.7c-24.5-13.7-49.3-27-75-38.3C1216,359.5,1191.9,345.7,1166.6,334.3z
	 M1200.8,360.4c3,1.9,8,1.9,11.5,3.1c3.6,1.2,7,2.8,10.4,4.5c8.9,4.6,17.6,9.6,26.3,14.6c15.7,9,34,18,47.1,30.5
	c-7.7-3.1-14.9-8.2-22.1-12.3c-9-5.2-18.1-10.2-27.1-15.3c-8.7-4.8-17.4-9.6-26.2-14.3C1214.8,368,1205.1,364.3,1200.8,360.4z
	 M1254.2,382.2c-0.4-2.1,15.1,5.6,16.6,6.4c7.5,4,15,8,22.5,12c15,8,30,16.1,44.8,24.4c14.4,8.1,28.7,16.4,42.9,25
	c13.7,8.3,27.9,16.7,39.5,27.8c-5.9,0-13.2-4.6-18.4-7.1c-7.3-3.5-14.5-7.3-21.7-11c-14.2-7.4-28.3-15.1-41.9-23.6
	C1310.3,418.2,1282.3,400.1,1254.2,382.2z M1390.3,469.9c14.4,8.1,29.5,15.1,44.9,21.2c7.1,2.8,14.4,5.1,21.2,8.7
	c7.3,3.9,14.1,8.6,21.3,12.8c-7.5,1.6-18.2-5.6-24.7-8.4c-9.7-4.2-19.2-8.6-28.7-13.3c-9.5-4.6-18.8-9.5-28-14.6
	c-7.5-4.1-19-8.3-24.7-14.9C1378.3,463,1384.2,466.8,1390.3,469.9z M1417.5,460.8c-1.3-0.8-2.9-1.7-3.3-3.3
	c3.6-2.6,14.4,4.2,17.8,5.5c6.3,2.3,12.8,4.3,19.3,6c13.9,3.8,28.1,6.3,41.8,10.8c13.2,4.4,25.7,10.5,38.7,15.5
	c6.1,2.3,12.5,3.9,18.9,5.3c5.2,1.2,15,1.6,19.3,5.2c-1.2,3.4-12.1,1.8-14.9,1.9c-7.5,0.1-15,0.1-22.6-0.3
	c-13.7-0.7-28.3-2-41.3-6.4c-12.4-4.2-24.5-11.7-36-17.8C1442.3,476.3,1429.6,469,1417.5,460.8z M1541.7,529.5
	c-23.4-1.6-44-10.7-63.7-22.9C1488.4,506.5,1517.2,516.8,1541.7,529.5z M1672.6,499.3c-2,0.2-4,0.7-5.9-0.4c1.5-2.3,4.8-2.7,7.3-3.4
	c4.3-1.3,8.6-2.7,12.9-4.3c8-3,16-6.5,23.4-10.8c5.8-3.3,10-7.6,16.9-9.1c6.7-1.5,13.7-1.2,20.5-1.9c9.8-1,2.1,5.3-1.9,9
	c-5.4,5-11,8.7-18.2,10.6C1709.6,493.7,1691,497.3,1672.6,499.3z M1733.7,464.5c11-5.1,23-7.6,34.5-11.3
	C1759.9,466.4,1745.3,461.3,1733.7,464.5z M1755,475.8c3.1-4.4,7.6-7.3,12.6-9.1c2.4-0.8,13.2-4.5,13.5-1.3s-12.3,8.1-14.7,9.2
	C1764.7,475.5,1750.8,481.9,1755,475.8z M1781.4,438c-5.8,3.3-12,6-18.3,8.2c-2.4,0.8-4.8,1.6-7.2,2.3c-1.6,0.5-3.2,1-4.8,1.4
	c-1.5-1-1.3-2,0.6-3c2.3-4.6,8.2-9,11.8-12.5c4.5-4.5,8.9-9.1,13-14c7.3-8.8,13.5-18.4,21.6-26.5c8.6-8.7,19-15.6,28.6-23.1
	c2.2,2.1-18.6,30.7-21.1,34.4c-3.9,5.7-7.9,11.4-11.9,17C1790.3,426.7,1786.3,435.1,1781.4,438z M1797.7,385c-0.4-0.3-0.9-0.6-1.3-1
	c3.2-3.9,6.4-7.8,9.5-11.7c1.1-1.3,5.5-8.6,6.9-8.6C1815.2,365.3,1799.8,383.3,1797.7,385z M1727.8,420.3c6.4-1.4,12.6-3.3,18.8-5.3
	c3.3-1.1,10.3-5.3,13.4-2.2c-23,18.3-49.8,31-78,38.9c8.8-3.9,16.5-9.6,23.9-15.6C1712.1,431.2,1719.8,422.1,1727.8,420.3z
	 M1708.5,424.9c-11.1,9.4-24.5,15.7-37.6,21.7c-13.4,6.2-28.6,12.5-43.2,14.9c-14,2.3-31.4-5.7-44.4-10.2
	c-7.9-2.8-15.7-5.8-23.5-8.9c-5.3-2.1-14.5-4.2-18.6-8.1C1597,439.2,1653.5,436,1708.5,424.9z M978.6,198.6
	c46.8,0.4,95,1.7,141.2,9.8c42.6,7.5,83.7,22.2,122.2,41.9c41.7,21.3,83.3,44.1,122.5,69.8c18.9,12.4,36.9,25.9,56.1,37.8
	c19.5,12.1,40,23,60.5,33.3c23.1,11.7,46.9,22.2,71.9,29.2c12.2,3.4,24.8,6.9,37.3,8.4c13.2,1.6,26.6,0.1,39.9,1.2
	c-25.2,3-50.2,2.7-75.3-1.1c-23.7-3.6-46.5-8.7-67-21.4c-42.6-26.2-83.2-55.3-126.6-80.2c-21.8-12.5-44.3-23.3-66.3-35.2
	c-21.4-11.5-42.3-22.4-65.6-29.7c-22.8-7.2-43.2-20.1-65.3-29.1c-22.3-9-45.4-15.8-68.9-20.9c-55.7-12.2-113.8-6.6-170.3-10
	C942.5,198.7,960.6,198.2,978.6,198.6z M83.3,504.3c24.1-8.2,48-18.1,72.4-24.7C132.4,489,107.9,497.9,83.3,504.3z M414.6,383.5
	c-39.4,15.3-78.6,31.1-117.9,46.6c-38.4,15.1-76.8,31.3-116.8,41.8c36.3-12.7,71.7-27.7,107.4-41.9c36.4-14.4,72.9-28.5,109.3-43
	c72.8-29,144.8-59.2,215.8-92.6c38.6-18.1,78.2-35.6,118.9-48.6c-0.2,2.6-7.8,3.9-9.7,4.7c-5.8,2.2-11.5,4.4-17.2,6.8
	c-10.1,4.1-20.2,8.5-30.2,13c-20.3,9.2-40.4,19-60.5,28.7c-41.3,19.9-83.1,38.3-125.6,55.5C463.8,364.4,439.2,374,414.6,383.5z
	 M848.7,242.9c-40.7,4.6-81.2,11.5-121.2,20.9c-19.5,4.6-39,9.5-57.7,16.8c-8.7,3.4-17.2,7.1-25.8,10.8c-8.6,3.6-18.1,6.3-26.5,10.3
	c0-3.1,21.3-11.3,24.6-12.8c9-4.3,18.1-8.4,27.2-12.5c17.9-8,35.9-15.7,54.1-22.9c35.1-13.9,71.3-28.2,108.4-35.5
	c77.2-15.2,156.9-14,234.7-4.1c21.3,2.7,42.3,6.7,62.9,12.7c10,2.9,19.8,6.3,29.6,9.9c4.9,1.8,9.7,3.7,14.5,5.7
	c3.4,1.4,11.1,2.9,12.9,6.5c-5.3,2.1-13.3-1.7-18.6-2.6c-7.1-1.3-14.2-2.2-21.4-2.8c-13.5-1.2-27-1.5-40.5-2
	c-28.7-1.2-57.3-2.6-86-3.2c-28.6-0.6-57.2,0.3-85.8,0.8C905.6,239.3,877.1,239.8,848.7,242.9z M946.6,244.3c-6.6,2.2-13.2,2-20,1.3
	C933.2,244.2,939.8,243.4,946.6,244.3z M745.4,291.6c28-10.3,55.9-20.8,84.7-28.6c14-3.8,28.2-6.7,42.5-9.4
	c15.2-2.8,30-6.1,45.4-4.1c-1.7,3.1-9.9,2.8-12.8,3.3c-5.6,1.1-11.2,2.3-16.8,3.6c-10.2,2.4-20.4,4.6-30.6,7
	c-20.7,4.8-39,14.6-58.8,21.6c-20.1,7.1-40.8,10.6-61.4,15.3c-20.3,4.6-39,12.3-58.5,19.2C700.5,308.8,722.8,299.8,745.4,291.6z
	 M670.9,322.7l0.2-0.1C670.8,322.7,670.5,322.7,670.9,322.7z M758.7,301c-38.9,14.5-75.4,34.5-113,51.9
	c-39.1,18.1-79.1,34.5-119,50.7c-39.4,16-79.2,31-118.7,46.5c-40.4,15.8-80.2,33-121,48c-22.8,8.3-46.1,14.8-69,22.6
	c-11.3,3.8-22.5,7.8-33.7,11.8c-6.1,2.1-12.1,4.3-18.2,6.4c-4.9,1.7-10.9,5-16.3,4.6c1.2-2.9,7.1-3.9,9.6-4.9
	c5.1-2,10.3-4.1,15.4-6.1c10.7-4.2,21.4-8.4,32.1-12.7c20.5-8.1,41-16.1,61.6-24.2c41.5-16.3,82.9-32.6,124.2-49.3
	c40.5-16.3,81-32.7,120.7-50.9c38.8-17.8,77.3-36.5,116.8-52.7c22-8.9,44.2-17.3,66.6-24.8c10.8-3.7,21.7-7.1,32.7-10.4
	c5.9-1.8,11.8-3.6,17.8-5.2c3.3-0.9,9.3-3.5,12.6-2.2C759.5,300.5,759.1,300.8,758.7,301z M844.6,281c-2.7,0.2-31.7,3.5-31.7,3.3
	c8.6-5.5,20.6-8.1,30.2-11.3c10.7-3.6,21.6-6.8,32.5-9.6c11.1-2.8,22.2-5.1,33.5-7.2s23.3-5.6,34.8-5.6c22.3,0.1,45.4,3.2,67.4,6.5
	c11.3,1.7,22.5,3.8,33.5,6.4c5.6,1.3,11.1,2.7,16.6,4.3c4,1.2,10.5,2,13.6,5c-3.9,1.4-8.9,0.3-12.9,0.2c-5.1-0.1-10.1-0.2-15.2-0.3
	c-9.2-0.2-18.3-0.4-27.5-0.6c-19.7-0.3-39.3-0.4-59,0.6c-19.1,1-37.9,3.8-56.9,5.4C883.9,279.7,864.2,279.2,844.6,281z M759.4,326.9
	c11.8-6.2,25.3-10,37.9-14.5c13.9-5,28-9.5,42.3-13.6c13.9-3.9,27.8-7.3,41.9-10.2c13-2.6,29.8-8.2,42.9-4.6
	c-15.2,2.8-30.1,6.9-45.2,10.1c-14.6,3.1-28.8,7.7-42.6,13.2c-13.5,5.4-26.2,9.3-40.5,12c-7.3,1.4-14.4,3.3-21.6,5.1
	C771.7,325.3,759.9,326.4,759.4,326.9z M751.7,340.9c-75.4,35.8-150.7,70.7-228.2,101.6c-38.6,15.3-77.3,30.4-115.9,45.6
	c-38.8,15.2-76.9,31.6-116.3,45.3c-22.2,7.7-44.5,14.9-66.8,22.2c-11.2,3.7-22.4,7.6-33.5,11.6c-5.1,1.9-10.3,3.8-15.4,5.6
	c-4.1,1.5-10.6,4.9-15.1,4c1.5-2.8,10.1-4.7,13.2-5.9c5.1-2.1,10.3-4.2,15.4-6.3c10.3-4.2,20.6-8.3,30.9-12.4
	c19.7-7.8,39.4-15.3,59.1-23c39.3-15.3,78.6-30.8,117.8-46.7c78.3-31.6,156.7-63.7,233.3-99.3c20.7-9.6,41.1-19.3,62.8-26.6
	c11.1-3.7,22.3-7.1,33.6-10.1c5.4-1.5,10.9-3,16.4-4.3C744.2,341.8,752.1,340.5,751.7,340.9z M744.5,337.9
	c15.7-5.9,31.8-10.7,48.6-13.6C778.3,333.5,760.8,333.9,744.5,337.9z M820.6,323.6c-7.8,0.7-15.4,2.9-23.1,3.5
	c24.5-12.8,55.4-14.3,82.4-16.9c30-3,59.8-3.3,89.9-0.9c-12.7-0.1-25.4,0.4-38.1,1.5c-12.8,1.1-24.6,3.4-37.1,5.8
	C870.1,321.2,845.2,321.2,820.6,323.6z M964.5,322.9c-12.3-0.5-24.6-0.8-36.9-1c-5.9-0.1-11.8-0.2-17.8-0.4
	c-4.1-0.1-10.4,1-13.8-1.9c43-5.6,86.4-8.9,129.8-6.3c21.1,1.3,42.1,4,62.8,8.4c10.5,2.2,20.8,4.9,31,8c4.7,1.4,29.4,7.5,29.4,12
	c-15.3-2.3-30.6-4.1-46.1-4.4s-30.6-0.9-45.9-3.4c-14.9-2.5-29.4-6.5-44.4-8.2C996.7,323.9,980.5,323.5,964.5,322.9z M969.1,339.2
	c33.6-1.2,67.3-4.5,100.5,4.1C1036,341.4,1002.5,341,969.1,339.2z M1147.8,368.9c17.9,5.6,35.3,12.9,51.9,21.6
	C1181.7,384.4,1162.9,380.4,1147.8,368.9z M1414.3,520.3c-19.6-5.6-38.6-17.1-56.3-27.1c-18.4-10.4-36.2-21.6-54-33
	c-17.7-11.3-35.4-22.8-53.4-33.6c-9.2-5.6-18.6-11.1-28-16.4c-4.7-2.7-9.4-5.3-14.2-7.8c-2.9-1.6-9.3-3.6-10.9-6.9
	c4.2-0.5,10.1,2.9,13.8,4.3c4.8,1.9,9.5,3.9,14.2,6c9.7,4.4,19.2,9.2,28.7,14.2c19.2,10.2,38.5,20.3,57.1,31.5
	c18.2,11,34.8,23.8,52.1,36c8.7,6.1,17.9,11.3,27.1,16.6c4.3,2.5,8.5,4.9,12.7,7.5c2.1,1.3,4.1,2.7,6.2,4
	C1411.6,516.9,1415.6,517.7,1414.3,520.3z M1490.8,544.2c-57.2-12.1-103.4-52.1-152.5-81.2c-52.1-30.9-105.1-61.1-159.7-87.3
	c-30.2-14.5-63.5-20.5-94-34c2.6-2.2,7.9-0.8,11-0.6c4.5,0.3,9.1,0.7,13.6,1.2c9.1,0.9,18.1,1.9,27.1,3.2
	c16.1,2.3,33.2,4.2,48.5,10.1c16.1,6.2,31.3,16.2,46.4,24.4c15.4,8.3,30.7,16.8,45.8,25.5c15,8.7,30.1,17.4,44.2,27.4
	c13.2,9.4,26.2,19,39.8,27.8c27.4,17.8,56.1,33.5,85.8,47c16.4,7.4,33.1,14.9,50.4,20.1c8.8,2.6,17.5,4.5,25.9,8.2
	s16.4,8.2,24.9,11.6C1529.4,550.3,1509.3,548.1,1490.8,544.2z M1607.3,566.1c-29.7,1.8-58.6-1.5-87.1-10
	C1550.8,549.5,1579.1,557.1,1607.3,566.1z M1724,564.3c20.3-2,40.3-6.1,59.6-12.4c9.4-3.1,18.7-6.7,27.7-10.9c4.4-2,9-4,13.1-6.5
	c3.8-2.3,6.9-5.5,11.1-7c-4.2,8.1-14.7,13.9-22,18.9c-8.4,5.7-17.2,10.8-26.3,15.4c-19.1,9.5-39.5,16.2-60.4,20.7
	c-45,9.8-92.6,13.8-138.1,5.6c-12.6-2.3-25-5.4-37.2-9.1c-6.1-1.9-12.2-3.9-18.3-6.1c-3.9-1.4-14.3-3.2-16.1-7.5
	c2.4-2.4,7.7,0.5,10.2,1.2c4.3,1.2,8.6,2.2,12.9,3c8.6,1.7,17.2,2.6,25.9,3.2c17,1,34,0.3,51-0.8
	C1652.9,569.8,1688.5,567.8,1724,564.3z M1683.5,557.1c-22.1,5.2-45.6,6-68,1.9c-6-1.1-11.8-2.5-17.8-3.9c-2-0.4-9.2-1.3-4.9-3.6
	c3.5-2,12.9-1.1,17.2-1.6c5.8-0.7,11.6-1.7,17.3-2.9c11.4-2.3,22.3-4.7,34-5.3c11.3-0.6,22.5-1,33.8-2.2c11.1-1.1,22.1-2.7,33-5
	c5.5-1.2,10.9-2.5,16.2-4c2.3-0.6,13.7-5.5,15.4-3.9c0.4,0.4-13.9,8.4-15.7,9.3c-6.5,3.2-13.1,6.1-19.9,8.7
	C1710.9,549.8,1697.3,553.8,1683.5,557.1z M1795.2,500.5c-17.8,10.1-37,17.7-56.7,23.2c-10.3,2.9-20.7,5.1-31.3,6.9
	c-5.4,0.9-10.8,1.7-16.2,2.5c-3.6,0.5-10.4,2.7-13.8,0.5c11-4.4,21.2-10.5,32.5-14.2c10.9-3.5,20.7-8.6,31.1-13.3
	c10.3-4.7,23.4-3.8,34.6-5.7c6.1-1,12.2-2.5,18.3-3.6C1798.4,495.9,1799.9,497.9,1795.2,500.5z M1822.8,472.4
	c-5.6,9.6-14.3,13.4-24.7,15.9c-13.3,3.2-26.6,7.1-40.3,8.1c-0.5-2.2,28.4-10.2,32.2-11.3c6.1-1.9,11.9-4.3,17.6-7
	C1808.6,477.6,1823.1,470.9,1822.8,472.4z M1880.3,417.8c3.5-3.6,8.8-7.9,10.9-12.6c-1.6,5.8-8.5,13-12.3,17.9
	c-5.5,7.3-11.3,14.4-17.2,21.4c-6,6.9-12.3,13.7-18.8,20.1c-4.3,4.2-10.5,12.7-17,12.9c0.8-4.3,6.7-9.7,9.5-13.3
	c4.4-5.5,9.1-10.8,14.3-15.6C1860.5,438.9,1870.2,428.3,1880.3,417.8z M1915.7,323.5c0,0-4.3,11.7-5.5,14.1
	c-3,6.1-6.1,12.2-9.2,18.2c-5.9,11.4-12.1,22.6-18.7,33.6c-6,10-12,22.2-20.7,30.3c-7.4,6.9-20.4,15-30.3,17.3
	c5.2-9.6,16.3-17.7,23.4-26.2c7.5-9,14.1-18.9,21.1-28.3c7.1-9.5,14.2-18.9,20.8-28.7C1903.4,344,1908.6,333,1915.7,323.5z
	 M1895.9,340.9c3.3-4.7,6.3-9.6,10.6-13.4c1.6,4-5,10.9-7,13.9c-3.3,5.1-6.6,10.1-9.9,15.1c-7.2,10.8-14.7,21.3-22.6,31.6
	c-7.9,10.4-16.2,20.5-25.1,30.1c-8.2,8.8-17,19.3-26.9,26.2c-0.9,0.6-5.7,4-6.7,3.2c-1.6-1.3,2.5-5.3,3.5-6.7
	c3.3-4.6,6.7-9.2,10.2-13.6c7.8-9.8,16.8-18.3,25.5-27.3C1865.1,381.6,1881.4,361.9,1895.9,340.9z M1896.9,285.3
	c5.7-7.5,11.1-15.3,15.6-23.6c1.4,6.5-5.5,16.2-8.1,21.9c-3.9,8.5-7.9,16.8-12.1,25.2c-8.5,17-17.7,33.7-27.6,50
	c-9.5,15.6-19.1,32.2-31,46.1c-5.3,6.2-12.1,11-19,15.3c-6.7,4.2-14.6,10.6-22.4,12.4c-0.6-5.2,7.5-12,10.3-15.9
	c4.8-6.6,9.4-13.3,13.8-20.2c8.6-13.3,16.1-27.3,24.6-40.7c3.7-5.8,9.5-10.5,14.1-15.7c4.9-5.6,9.5-11.4,14-17.2
	C1878.6,310.5,1887.4,297.7,1896.9,285.3z M1872.1,284.3c-8.1,17.8-16.1,35.6-25.3,52.8c-4.3,7.9-8.6,15.5-15,22
	c-6.2,6.2-13.3,11.2-20.4,16.2c1.7-4.1,5.6-7.9,8.1-11.6c2.8-4.2,5.5-8.4,8.2-12.7c5.2-8.5,10.3-17.2,15.5-25.8
	c5-8.4,9.5-17,14.6-25.3c2.4-3.8,4.8-7.5,7.5-11.1c1.4-1.9,5.5-8.8,8.1-9.3C1874,281.2,1872.8,282.8,1872.1,284.3z M1905.9,179.8
	c-3.6,17.2-9.7,33.7-15.5,50.2c5.3-16.5,7.7-35.7,15.7-51.1C1906.1,179.2,1906,179.5,1905.9,179.8z"/>
</svg>
